<svg id="svg" xmlns="http://www.w3.org/2000/svg" xmlns:xlink="http://www.w3.org/1999/xlink"
    width="400" height="400" viewBox="0, 0, 400,400">
    <path id="path0"
        d="M247.111 125.833 L 247.111 151.444 246.585 150.833 C 246.296 150.497,245.939 150.222,245.793 150.222 C 245.646 150.222,245.196 149.872,244.792 149.444 C 244.389 149.017,243.918 148.667,243.745 148.667 C 243.573 148.667,243.287 148.467,243.111 148.222 C 242.935 147.978,242.706 147.778,242.602 147.778 C 242.498 147.778,242.263 147.628,242.079 147.444 C 241.896 147.261,241.560 147.111,241.332 147.111 C 241.105 147.111,240.855 146.911,240.778 146.667 C 240.700 146.422,240.443 146.222,240.207 146.222 C 239.971 146.222,239.778 146.122,239.778 146.000 C 239.778 145.878,239.578 145.778,239.333 145.778 C 239.089 145.778,238.889 145.682,238.889 145.566 C 238.889 145.449,238.539 145.288,238.111 145.208 C 237.683 145.127,237.333 144.973,237.333 144.864 C 237.333 144.756,237.183 144.667,237.000 144.667 C 236.817 144.667,236.667 144.567,236.667 144.444 C 236.667 144.322,236.467 144.222,236.222 144.222 C 235.978 144.222,235.778 144.122,235.778 144.000 C 235.778 143.878,235.528 143.778,235.222 143.778 C 234.917 143.778,234.667 143.684,234.667 143.569 C 234.667 143.454,234.217 143.293,233.667 143.211 C 233.117 143.128,232.667 142.972,232.667 142.864 C 232.667 142.755,232.367 142.667,232.000 142.667 C 231.633 142.667,231.333 142.567,231.333 142.444 C 231.333 142.322,230.983 142.222,230.556 142.222 C 230.128 142.222,229.778 142.122,229.778 142.000 C 229.778 141.878,229.436 141.778,229.019 141.778 C 228.601 141.778,228.226 141.685,228.185 141.571 C 228.144 141.457,226.886 141.293,225.389 141.206 C 223.892 141.119,222.667 140.962,222.667 140.857 C 222.667 140.753,220.967 140.667,218.889 140.667 C 216.811 140.667,215.111 140.752,215.111 140.856 C 215.111 140.959,213.887 141.114,212.391 141.198 C 210.894 141.283,209.574 141.448,209.457 141.565 C 209.340 141.682,208.914 141.778,208.511 141.778 C 208.108 141.778,207.778 141.878,207.778 142.000 C 207.778 142.122,207.428 142.222,207.000 142.222 C 206.572 142.222,206.222 142.322,206.222 142.444 C 206.222 142.567,205.972 142.667,205.667 142.667 C 205.361 142.667,205.111 142.753,205.111 142.860 C 205.111 142.966,204.688 143.109,204.171 143.179 C 203.655 143.248,203.196 143.411,203.153 143.541 C 203.110 143.671,202.782 143.778,202.426 143.778 C 202.069 143.778,201.778 143.878,201.778 144.000 C 201.778 144.122,201.628 144.222,201.444 144.222 C 201.261 144.222,201.111 144.322,201.111 144.444 C 201.111 144.567,200.911 144.667,200.667 144.667 C 200.422 144.667,200.222 144.755,200.222 144.864 C 200.222 144.972,199.792 145.125,199.266 145.204 C 198.695 145.290,198.183 145.523,197.995 145.785 C 197.822 146.025,197.552 146.222,197.395 146.222 C 197.239 146.222,197.111 146.322,197.111 146.444 C 197.111 146.567,196.911 146.667,196.667 146.667 C 196.422 146.667,196.222 146.767,196.222 146.889 C 196.222 147.011,196.019 147.111,195.771 147.111 C 195.523 147.111,195.262 147.261,195.191 147.444 C 195.121 147.628,194.896 147.778,194.692 147.778 C 194.488 147.778,194.176 147.978,194.000 148.222 C 193.824 148.467,193.595 148.667,193.491 148.667 C 193.387 148.667,193.162 148.792,192.992 148.944 C 192.286 149.578,192.009 149.778,191.841 149.778 C 191.744 149.778,191.348 150.103,190.962 150.500 C 190.144 151.341,189.627 151.778,189.446 151.778 C 189.338 151.778,188.216 152.786,187.444 153.576 C 187.322 153.701,186.797 154.230,186.278 154.752 C 185.758 155.274,185.333 155.814,185.333 155.952 C 185.333 156.247,184.290 157.333,184.006 157.333 C 183.898 157.333,183.634 157.733,183.418 158.221 C 183.203 158.709,182.846 159.165,182.625 159.236 C 182.403 159.306,182.222 159.520,182.222 159.711 C 182.222 159.902,182.037 160.221,181.810 160.418 C 181.583 160.616,181.326 161.003,181.239 161.278 C 181.152 161.553,180.988 161.778,180.874 161.778 C 180.760 161.778,180.667 161.956,180.667 162.173 C 180.667 162.391,180.467 162.713,180.222 162.889 C 179.978 163.065,179.778 163.337,179.778 163.494 C 179.778 163.650,179.689 163.778,179.580 163.778 C 179.472 163.778,179.321 164.106,179.246 164.507 C 179.171 164.908,178.910 165.380,178.666 165.556 C 178.422 165.732,178.222 166.054,178.222 166.271 C 178.222 166.489,178.122 166.667,178.000 166.667 C 177.878 166.667,177.778 166.917,177.778 167.222 C 177.778 167.528,177.689 167.778,177.580 167.778 C 177.472 167.778,177.317 168.128,177.237 168.556 C 177.157 168.983,176.996 169.333,176.879 169.333 C 176.762 169.333,176.667 169.533,176.667 169.778 C 176.667 170.022,176.567 170.222,176.444 170.222 C 176.322 170.222,176.222 170.472,176.222 170.778 C 176.222 171.083,176.122 171.333,176.000 171.333 C 175.878 171.333,175.778 171.633,175.778 172.000 C 175.778 172.367,175.685 172.667,175.572 172.667 C 175.458 172.667,175.297 173.217,175.213 173.889 C 175.129 174.561,174.971 175.111,174.863 175.111 C 174.755 175.111,174.667 175.361,174.667 175.667 C 174.667 175.972,174.567 176.222,174.444 176.222 C 174.322 176.222,174.222 176.572,174.222 177.000 C 174.222 177.428,174.122 177.778,174.000 177.778 C 173.878 177.778,173.778 178.228,173.778 178.778 C 173.778 179.328,173.687 179.778,173.575 179.778 C 173.464 179.778,173.301 180.978,173.213 182.444 C 173.126 183.911,172.967 185.111,172.860 185.111 C 172.754 185.111,172.667 187.861,172.667 191.222 C 172.667 194.583,172.751 197.333,172.855 197.333 C 172.959 197.333,173.110 198.508,173.192 199.944 C 173.274 201.381,173.439 202.589,173.559 202.630 C 173.679 202.670,173.778 203.145,173.778 203.685 C 173.778 204.225,173.878 204.667,174.000 204.667 C 174.122 204.667,174.222 205.017,174.222 205.444 C 174.222 205.872,174.322 206.222,174.444 206.222 C 174.567 206.222,174.667 206.472,174.667 206.778 C 174.667 207.083,174.755 207.333,174.863 207.333 C 174.971 207.333,175.129 207.883,175.213 208.556 C 175.297 209.228,175.458 209.778,175.572 209.778 C 175.685 209.778,175.778 210.028,175.778 210.333 C 175.778 210.639,175.878 210.889,176.000 210.889 C 176.122 210.889,176.222 211.189,176.222 211.556 C 176.222 211.922,176.322 212.222,176.444 212.222 C 176.567 212.222,176.667 212.372,176.667 212.556 C 176.667 212.739,176.758 212.889,176.869 212.889 C 176.981 212.889,177.140 213.289,177.222 213.778 C 177.305 214.267,177.464 214.667,177.575 214.667 C 177.687 214.667,177.778 214.917,177.778 215.222 C 177.778 215.528,177.878 215.778,178.000 215.778 C 178.122 215.778,178.222 215.971,178.222 216.207 C 178.222 216.443,178.414 216.698,178.649 216.772 C 178.934 216.863,179.124 217.198,179.224 217.787 C 179.306 218.271,179.464 218.667,179.575 218.667 C 179.687 218.667,179.778 218.817,179.778 219.000 C 179.778 219.265,179.457 219.333,178.222 219.333 C 177.333 219.333,176.667 219.429,176.667 219.556 C 176.667 219.685,175.926 219.778,174.889 219.778 C 173.852 219.778,173.111 219.870,173.111 220.000 C 173.111 220.128,172.407 220.222,171.444 220.222 C 170.481 220.222,169.778 220.316,169.778 220.444 C 169.778 220.568,169.185 220.667,168.444 220.667 C 167.711 220.667,167.111 220.753,167.111 220.859 C 167.111 221.066,162.960 221.347,162.501 221.170 C 162.347 221.112,162.222 220.774,162.222 220.421 C 162.222 220.067,162.122 219.778,162.000 219.778 C 161.878 219.778,161.778 219.528,161.778 219.222 C 161.778 218.917,161.678 218.667,161.556 218.667 C 161.433 218.667,161.333 218.375,161.333 218.019 C 161.333 217.662,161.227 217.335,161.097 217.292 C 160.967 217.248,160.804 216.790,160.734 216.273 C 160.665 215.756,160.521 215.333,160.415 215.333 C 160.309 215.333,160.222 215.083,160.222 214.778 C 160.222 214.472,160.122 214.222,160.000 214.222 C 159.878 214.222,159.778 213.972,159.778 213.667 C 159.778 213.361,159.678 213.111,159.556 213.111 C 159.433 213.111,159.333 212.811,159.333 212.444 C 159.333 212.078,159.246 211.778,159.140 211.778 C 159.033 211.778,158.879 211.353,158.797 210.833 C 158.629 209.766,158.197 208.667,157.946 208.667 C 157.853 208.667,157.778 208.367,157.778 208.000 C 157.778 207.633,157.678 207.333,157.556 207.333 C 157.433 207.333,157.333 207.083,157.333 206.778 C 157.333 206.472,157.241 206.222,157.127 206.222 C 157.014 206.222,156.852 205.672,156.768 205.000 C 156.684 204.328,156.527 203.778,156.419 203.778 C 156.311 203.778,156.222 203.528,156.222 203.222 C 156.222 202.917,156.122 202.667,156.000 202.667 C 155.878 202.667,155.778 202.367,155.778 202.000 C 155.778 201.633,155.678 201.333,155.556 201.333 C 155.433 201.333,155.333 201.183,155.333 201.000 C 155.333 200.817,155.245 200.667,155.137 200.667 C 155.029 200.667,154.871 200.117,154.787 199.444 C 154.703 198.772,154.542 198.222,154.428 198.222 C 154.315 198.222,154.222 197.972,154.222 197.667 C 154.222 197.361,154.122 197.111,154.000 197.111 C 153.878 197.111,153.778 196.811,153.778 196.444 C 153.778 196.078,153.678 195.778,153.556 195.778 C 153.433 195.778,153.333 195.528,153.333 195.222 C 153.333 194.917,153.247 194.667,153.140 194.667 C 153.034 194.667,152.891 194.244,152.821 193.727 C 152.752 193.210,152.589 192.752,152.459 192.708 C 152.329 192.665,152.222 192.338,152.222 191.981 C 152.222 191.625,152.122 191.333,152.000 191.333 C 151.878 191.333,151.778 191.083,151.778 190.778 C 151.778 190.472,151.678 190.222,151.556 190.222 C 151.433 190.222,151.333 189.972,151.333 189.667 C 151.333 189.361,151.245 189.111,151.137 189.111 C 151.029 189.111,150.871 188.561,150.787 187.889 C 150.703 187.217,150.542 186.667,150.428 186.667 C 150.315 186.667,150.222 186.487,150.222 186.267 C 150.222 185.770,149.725 184.671,149.500 184.668 C 149.408 184.667,149.333 184.367,149.333 184.000 C 149.333 183.633,149.243 183.333,149.132 183.333 C 149.021 183.333,148.862 182.833,148.778 182.222 C 148.694 181.611,148.534 181.111,148.424 181.111 C 148.313 181.111,148.222 180.811,148.222 180.444 C 148.222 180.078,148.122 179.778,148.000 179.778 C 147.878 179.778,147.778 179.528,147.778 179.222 C 147.778 178.917,147.678 178.667,147.556 178.667 C 147.433 178.667,147.333 178.375,147.333 178.019 C 147.333 177.662,147.227 177.335,147.097 177.292 C 146.967 177.248,146.804 176.790,146.734 176.273 C 146.665 175.756,146.521 175.333,146.415 175.333 C 146.309 175.333,146.222 175.083,146.222 174.778 C 146.222 174.472,146.122 174.222,146.000 174.222 C 145.878 174.222,145.778 173.972,145.778 173.667 C 145.778 173.361,145.678 173.111,145.556 173.111 C 145.433 173.111,145.333 172.811,145.333 172.444 C 145.333 172.078,145.246 171.778,145.140 171.778 C 145.033 171.778,144.879 171.353,144.797 170.833 C 144.629 169.766,144.197 168.667,143.946 168.667 C 143.853 168.667,143.778 168.367,143.778 168.000 C 143.778 167.633,143.678 167.333,143.556 167.333 C 143.433 167.333,143.333 167.083,143.333 166.778 C 143.333 166.472,143.241 166.222,143.127 166.222 C 143.014 166.222,142.852 165.672,142.768 165.000 C 142.684 164.328,142.527 163.778,142.419 163.778 C 142.311 163.778,142.222 163.528,142.222 163.222 C 142.222 162.917,142.122 162.667,142.000 162.667 C 141.878 162.667,141.778 162.367,141.778 162.000 C 141.778 161.633,141.678 161.333,141.556 161.333 C 141.433 161.333,141.333 161.183,141.333 161.000 C 141.333 160.817,141.245 160.667,141.137 160.667 C 141.029 160.667,140.871 160.117,140.787 159.444 C 140.703 158.772,140.542 158.222,140.428 158.222 C 140.315 158.222,140.222 157.972,140.222 157.667 C 140.222 157.361,140.122 157.111,140.000 157.111 C 139.878 157.111,139.778 156.811,139.778 156.444 C 139.778 156.078,139.678 155.778,139.556 155.778 C 139.433 155.778,139.333 155.528,139.333 155.222 C 139.333 154.917,139.247 154.667,139.140 154.667 C 139.034 154.667,138.891 154.244,138.821 153.727 C 138.752 153.210,138.589 152.752,138.459 152.708 C 138.329 152.665,138.222 152.338,138.222 151.981 C 138.222 151.625,138.122 151.333,138.000 151.333 C 137.878 151.333,137.778 151.083,137.778 150.778 C 137.778 150.472,137.678 150.222,137.556 150.222 C 137.433 150.222,137.333 149.972,137.333 149.667 C 137.333 149.361,137.245 149.111,137.137 149.111 C 137.029 149.111,136.871 148.561,136.787 147.889 C 136.703 147.217,136.542 146.667,136.428 146.667 C 136.315 146.667,136.222 146.487,136.222 146.267 C 136.222 145.770,135.725 144.671,135.500 144.668 C 135.408 144.667,135.333 144.367,135.333 144.000 C 135.333 143.633,135.243 143.333,135.132 143.333 C 135.021 143.333,134.862 142.833,134.778 142.222 C 134.694 141.611,134.534 141.111,134.424 141.111 C 134.313 141.111,134.222 140.811,134.222 140.444 C 134.222 140.078,134.122 139.778,134.000 139.778 C 133.878 139.778,133.778 139.528,133.778 139.222 C 133.778 138.917,133.678 138.667,133.556 138.667 C 133.433 138.667,133.333 138.375,133.333 138.019 C 133.333 137.662,133.227 137.335,133.097 137.292 C 132.967 137.248,132.804 136.790,132.734 136.273 C 132.665 135.756,132.521 135.333,132.415 135.333 C 132.309 135.333,132.222 135.083,132.222 134.778 C 132.222 134.472,132.122 134.222,132.000 134.222 C 131.878 134.222,131.778 133.972,131.778 133.667 C 131.778 133.361,131.678 133.111,131.556 133.111 C 131.433 133.111,131.333 132.811,131.333 132.444 C 131.333 132.078,131.246 131.778,131.140 131.778 C 131.033 131.778,130.879 131.353,130.797 130.833 C 130.629 129.766,130.197 128.667,129.946 128.667 C 129.853 128.667,129.778 128.367,129.778 128.000 C 129.778 127.633,129.678 127.333,129.556 127.333 C 129.433 127.333,129.333 127.083,129.333 126.778 C 129.333 126.472,129.241 126.222,129.127 126.222 C 129.014 126.222,128.852 125.672,128.768 125.000 C 128.684 124.328,128.527 123.778,128.419 123.778 C 128.311 123.778,128.222 123.528,128.222 123.222 C 128.222 122.917,128.122 122.667,128.000 122.667 C 127.878 122.667,127.778 122.367,127.778 122.000 C 127.778 121.633,127.678 121.333,127.556 121.333 C 127.433 121.333,127.333 121.183,127.333 121.000 C 127.333 120.817,127.245 120.667,127.137 120.667 C 127.029 120.667,126.871 120.117,126.787 119.444 C 126.703 118.772,126.542 118.222,126.428 118.222 C 126.315 118.222,126.222 117.972,126.222 117.667 C 126.222 117.361,126.122 117.111,126.000 117.111 C 125.878 117.111,125.778 116.811,125.778 116.444 C 125.778 116.078,125.678 115.778,125.556 115.778 C 125.433 115.778,125.333 115.528,125.333 115.222 C 125.333 114.917,125.247 114.667,125.140 114.667 C 125.034 114.667,124.891 114.244,124.821 113.727 C 124.752 113.210,124.589 112.752,124.459 112.708 C 124.329 112.665,124.222 112.338,124.222 111.981 C 124.222 111.625,124.122 111.333,124.000 111.333 C 123.878 111.333,123.778 111.083,123.778 110.778 C 123.778 110.472,123.678 110.222,123.556 110.222 C 123.433 110.222,123.333 110.022,123.333 109.778 C 123.333 109.337,123.185 109.333,107.222 109.333 L 91.111 109.333 91.111 110.000 C 91.111 110.367,91.011 110.667,90.889 110.667 C 90.767 110.667,90.667 110.917,90.667 111.222 C 90.667 111.528,90.567 111.778,90.444 111.778 C 90.322 111.778,90.222 112.078,90.222 112.444 C 90.222 112.811,90.122 113.111,90.000 113.111 C 89.878 113.111,89.778 113.361,89.778 113.667 C 89.778 113.972,89.684 114.222,89.569 114.222 C 89.454 114.222,89.293 114.672,89.211 115.222 C 89.128 115.772,88.972 116.222,88.864 116.222 C 88.755 116.222,88.667 116.472,88.667 116.778 C 88.667 117.083,88.567 117.333,88.444 117.333 C 88.322 117.333,88.222 117.633,88.222 118.000 C 88.222 118.367,88.122 118.667,88.000 118.667 C 87.878 118.667,87.778 118.917,87.778 119.222 C 87.778 119.528,87.689 119.778,87.581 119.778 C 87.473 119.778,87.316 120.328,87.232 121.000 C 87.148 121.672,86.986 122.222,86.873 122.222 C 86.759 122.222,86.667 122.472,86.667 122.778 C 86.667 123.083,86.567 123.333,86.444 123.333 C 86.322 123.333,86.222 123.533,86.222 123.778 C 86.222 124.022,86.122 124.222,86.000 124.222 C 85.878 124.222,85.778 124.466,85.778 124.765 C 85.778 125.063,85.687 125.363,85.576 125.432 C 85.466 125.500,85.306 126.056,85.222 126.667 C 85.138 127.278,84.979 127.778,84.868 127.778 C 84.757 127.778,84.667 128.078,84.667 128.444 C 84.667 128.811,84.567 129.111,84.444 129.111 C 84.322 129.111,84.222 129.361,84.222 129.667 C 84.222 129.972,84.122 130.222,84.000 130.222 C 83.878 130.222,83.778 130.472,83.778 130.778 C 83.778 131.083,83.684 131.333,83.569 131.333 C 83.454 131.333,83.293 131.783,83.211 132.333 C 83.128 132.883,82.972 133.333,82.864 133.333 C 82.755 133.333,82.667 133.633,82.667 134.000 C 82.667 134.367,82.567 134.667,82.444 134.667 C 82.322 134.667,82.222 134.917,82.222 135.222 C 82.222 135.528,82.122 135.778,82.000 135.778 C 81.878 135.778,81.778 136.078,81.778 136.444 C 81.778 136.811,81.687 137.111,81.576 137.111 C 81.466 137.111,81.306 137.611,81.222 138.222 C 81.138 138.833,80.979 139.333,80.868 139.333 C 80.757 139.333,80.667 139.533,80.667 139.778 C 80.667 140.022,80.567 140.222,80.444 140.222 C 80.322 140.222,80.222 140.466,80.222 140.765 C 80.222 141.063,80.122 141.369,80.000 141.444 C 79.878 141.520,79.778 141.826,79.778 142.124 C 79.778 142.423,79.685 142.667,79.572 142.667 C 79.458 142.667,79.297 143.217,79.213 143.889 C 79.129 144.561,78.971 145.111,78.863 145.111 C 78.755 145.111,78.667 145.361,78.667 145.667 C 78.667 145.972,78.567 146.222,78.444 146.222 C 78.322 146.222,78.222 146.472,78.222 146.778 C 78.222 147.083,78.122 147.333,78.000 147.333 C 77.878 147.333,77.778 147.533,77.778 147.778 C 77.778 148.022,77.685 148.222,77.572 148.222 C 77.458 148.222,77.297 148.772,77.213 149.444 C 77.129 150.117,76.971 150.667,76.863 150.667 C 76.755 150.667,76.667 150.917,76.667 151.222 C 76.667 151.528,76.567 151.778,76.444 151.778 C 76.322 151.778,76.222 152.078,76.222 152.444 C 76.222 152.811,76.122 153.111,76.000 153.111 C 75.878 153.111,75.778 153.361,75.778 153.667 C 75.778 153.972,75.689 154.222,75.581 154.222 C 75.472 154.222,75.316 154.672,75.234 155.222 C 75.151 155.772,74.990 156.222,74.875 156.222 C 74.761 156.222,74.667 156.472,74.667 156.778 C 74.667 157.083,74.567 157.333,74.444 157.333 C 74.322 157.333,74.222 157.633,74.222 158.000 C 74.222 158.367,74.122 158.667,74.000 158.667 C 73.878 158.667,73.778 158.917,73.778 159.222 C 73.778 159.528,73.689 159.778,73.581 159.778 C 73.473 159.778,73.316 160.328,73.232 161.000 C 73.148 161.672,72.986 162.222,72.873 162.222 C 72.759 162.222,72.667 162.472,72.667 162.778 C 72.667 163.083,72.567 163.333,72.444 163.333 C 72.322 163.333,72.222 163.533,72.222 163.778 C 72.222 164.022,72.122 164.222,72.000 164.222 C 71.878 164.222,71.778 164.466,71.778 164.765 C 71.778 165.063,71.687 165.363,71.576 165.432 C 71.466 165.500,71.306 166.056,71.222 166.667 C 71.138 167.278,70.979 167.778,70.868 167.778 C 70.757 167.778,70.667 168.078,70.667 168.444 C 70.667 168.811,70.567 169.111,70.444 169.111 C 70.322 169.111,70.222 169.361,70.222 169.667 C 70.222 169.972,70.122 170.222,70.000 170.222 C 69.878 170.222,69.778 170.472,69.778 170.778 C 69.778 171.083,69.691 171.333,69.585 171.333 C 69.479 171.333,69.335 171.756,69.266 172.273 C 69.196 172.790,69.033 173.248,68.903 173.292 C 68.773 173.335,68.667 173.662,68.667 174.019 C 68.667 174.375,68.567 174.667,68.444 174.667 C 68.322 174.667,68.222 174.917,68.222 175.222 C 68.222 175.528,68.122 175.778,68.000 175.778 C 67.878 175.778,67.778 176.078,67.778 176.444 C 67.778 176.811,67.687 177.111,67.576 177.111 C 67.466 177.111,67.306 177.611,67.222 178.222 C 67.138 178.833,66.979 179.333,66.868 179.333 C 66.757 179.333,66.667 179.633,66.667 180.000 C 66.667 180.367,66.592 180.667,66.500 180.668 C 66.275 180.671,65.778 181.770,65.778 182.267 C 65.778 182.487,65.685 182.667,65.572 182.667 C 65.458 182.667,65.297 183.217,65.213 183.889 C 65.129 184.561,64.971 185.111,64.863 185.111 C 64.755 185.111,64.667 185.361,64.667 185.667 C 64.667 185.972,64.567 186.222,64.444 186.222 C 64.322 186.222,64.222 186.472,64.222 186.778 C 64.222 187.083,64.122 187.333,64.000 187.333 C 63.878 187.333,63.778 187.625,63.778 187.981 C 63.778 188.338,63.671 188.665,63.541 188.708 C 63.411 188.752,63.248 189.210,63.179 189.727 C 63.109 190.244,62.966 190.667,62.860 190.667 C 62.753 190.667,62.667 190.917,62.667 191.222 C 62.667 191.528,62.567 191.778,62.444 191.778 C 62.322 191.778,62.222 192.078,62.222 192.444 C 62.222 192.811,62.122 193.111,62.000 193.111 C 61.878 193.111,61.778 193.361,61.778 193.667 C 61.778 193.972,61.685 194.222,61.572 194.222 C 61.458 194.222,61.297 194.772,61.213 195.444 C 61.129 196.117,60.971 196.667,60.863 196.667 C 60.755 196.667,60.667 196.817,60.667 197.000 C 60.667 197.183,60.567 197.333,60.444 197.333 C 60.322 197.333,60.222 197.633,60.222 198.000 C 60.222 198.367,60.122 198.667,60.000 198.667 C 59.878 198.667,59.778 198.917,59.778 199.222 C 59.778 199.528,59.689 199.778,59.581 199.778 C 59.473 199.778,59.316 200.328,59.232 201.000 C 59.148 201.672,58.986 202.222,58.873 202.222 C 58.759 202.222,58.667 202.472,58.667 202.778 C 58.667 203.083,58.567 203.333,58.444 203.333 C 58.322 203.333,58.222 203.633,58.222 204.000 C 58.222 204.367,58.147 204.667,58.054 204.667 C 57.803 204.667,57.371 205.766,57.203 206.833 C 57.121 207.353,56.967 207.778,56.860 207.778 C 56.754 207.778,56.667 208.078,56.667 208.444 C 56.667 208.811,56.567 209.111,56.444 209.111 C 56.322 209.111,56.222 209.361,56.222 209.667 C 56.222 209.972,56.122 210.222,56.000 210.222 C 55.878 210.222,55.778 210.472,55.778 210.778 C 55.778 211.083,55.691 211.333,55.585 211.333 C 55.479 211.333,55.335 211.756,55.266 212.273 C 55.196 212.790,55.033 213.248,54.903 213.292 C 54.773 213.335,54.667 213.662,54.667 214.019 C 54.667 214.375,54.567 214.667,54.444 214.667 C 54.322 214.667,54.222 214.917,54.222 215.222 C 54.222 215.528,54.122 215.778,54.000 215.778 C 53.878 215.778,53.778 216.078,53.778 216.444 C 53.778 216.811,53.687 217.111,53.576 217.111 C 53.466 217.111,53.306 217.611,53.222 218.222 C 53.138 218.833,52.979 219.333,52.868 219.333 C 52.757 219.333,52.667 219.633,52.667 220.000 C 52.667 220.367,52.592 220.667,52.500 220.668 C 52.275 220.671,51.778 221.770,51.778 222.267 C 51.778 222.487,51.685 222.667,51.572 222.667 C 51.458 222.667,51.297 223.217,51.213 223.889 C 51.129 224.561,50.971 225.111,50.863 225.111 C 50.755 225.111,50.667 225.361,50.667 225.667 C 50.667 225.972,50.567 226.222,50.444 226.222 C 50.322 226.222,50.222 226.472,50.222 226.778 C 50.222 227.083,50.122 227.333,50.000 227.333 C 49.878 227.333,49.778 227.633,49.778 228.000 C 49.778 228.367,49.689 228.667,49.581 228.667 C 49.472 228.667,49.316 229.117,49.234 229.667 C 49.151 230.217,48.990 230.667,48.875 230.667 C 48.761 230.667,48.667 230.917,48.667 231.222 C 48.667 231.528,48.567 231.778,48.444 231.778 C 48.322 231.778,48.222 232.078,48.222 232.444 C 48.222 232.811,48.122 233.111,48.000 233.111 C 47.878 233.111,47.778 233.361,47.778 233.667 C 47.778 233.972,47.685 234.222,47.572 234.222 C 47.458 234.222,47.297 234.772,47.213 235.444 C 47.129 236.117,46.971 236.667,46.863 236.667 C 46.755 236.667,46.667 236.917,46.667 237.222 C 46.667 237.528,46.567 237.778,46.444 237.778 C 46.322 237.778,46.222 237.978,46.222 238.222 C 46.222 238.467,46.122 238.667,46.000 238.667 C 45.878 238.667,45.778 238.911,45.778 239.209 C 45.778 239.507,45.687 239.808,45.576 239.876 C 45.466 239.944,45.306 240.500,45.222 241.111 C 45.138 241.722,44.979 242.222,44.868 242.222 C 44.757 242.222,44.667 242.472,44.667 242.778 C 44.667 243.083,44.567 243.333,44.444 243.333 C 44.322 243.333,44.222 243.633,44.222 244.000 C 44.222 244.367,44.122 244.667,44.000 244.667 C 43.878 244.667,43.778 244.917,43.778 245.222 C 43.778 245.528,43.684 245.778,43.569 245.778 C 43.454 245.778,43.293 246.228,43.211 246.778 C 43.128 247.328,42.972 247.778,42.864 247.778 C 42.755 247.778,42.667 248.078,42.667 248.444 C 42.667 248.811,42.567 249.111,42.444 249.111 C 42.322 249.111,42.222 249.361,42.222 249.667 C 42.222 249.972,42.122 250.222,42.000 250.222 C 41.878 250.222,41.778 250.472,41.778 250.778 C 41.778 251.083,41.678 251.333,41.556 251.333 C 41.433 251.333,41.333 251.533,41.333 251.778 C 41.333 252.104,41.185 252.222,40.778 252.222 C 40.472 252.222,40.222 252.322,40.222 252.444 C 40.222 252.567,40.022 252.667,39.778 252.667 C 39.533 252.667,39.333 252.755,39.333 252.864 C 39.333 252.972,38.883 253.128,38.333 253.211 C 37.783 253.293,37.333 253.454,37.333 253.569 C 37.333 253.684,37.083 253.778,36.778 253.778 C 36.472 253.778,36.222 253.878,36.222 254.000 C 36.222 254.122,36.022 254.222,35.778 254.222 C 35.533 254.222,35.333 254.322,35.333 254.444 C 35.333 254.567,35.083 254.667,34.778 254.667 C 34.472 254.667,34.222 254.756,34.222 254.864 C 34.222 254.973,33.872 255.127,33.444 255.208 C 33.017 255.288,32.667 255.449,32.667 255.566 C 32.667 255.682,32.367 255.778,32.000 255.778 C 31.633 255.778,31.333 255.878,31.333 256.000 C 31.333 256.122,31.183 256.222,31.000 256.222 C 30.817 256.222,30.667 256.322,30.667 256.444 C 30.667 256.567,30.467 256.667,30.222 256.667 C 29.978 256.667,29.778 256.755,29.778 256.864 C 29.778 256.972,29.328 257.128,28.778 257.211 C 28.228 257.293,27.778 257.454,27.778 257.569 C 27.778 257.684,27.628 257.778,27.444 257.778 C 27.261 257.778,27.111 257.878,27.111 258.000 C 27.111 258.122,26.811 258.222,26.444 258.222 C 26.078 258.222,25.778 258.322,25.778 258.444 C 25.778 258.567,25.628 258.667,25.444 258.667 C 25.261 258.667,25.111 258.758,25.111 258.869 C 25.111 258.981,24.711 259.140,24.222 259.222 C 23.733 259.305,23.333 259.464,23.333 259.575 C 23.333 259.687,23.083 259.778,22.778 259.778 C 22.472 259.778,22.222 259.878,22.222 260.000 C 22.222 260.122,22.022 260.222,21.778 260.222 C 21.533 260.222,21.333 260.322,21.333 260.444 C 21.333 260.567,21.183 260.667,21.000 260.667 C 20.817 260.667,20.667 260.756,20.667 260.864 C 20.667 260.973,20.317 261.127,19.889 261.208 C 19.461 261.288,19.111 261.449,19.111 261.566 C 19.111 261.682,18.911 261.778,18.667 261.778 C 18.422 261.778,18.222 261.878,18.222 262.000 C 18.222 262.122,17.972 262.222,17.667 262.222 C 17.361 262.222,17.111 262.322,17.111 262.444 C 17.111 262.567,16.911 262.667,16.667 262.667 C 16.422 262.667,16.222 262.756,16.222 262.864 C 16.222 262.973,15.872 263.127,15.444 263.208 C 15.017 263.288,14.667 263.449,14.667 263.566 C 14.667 263.682,14.467 263.778,14.222 263.778 C 13.978 263.778,13.778 263.878,13.778 264.000 C 13.778 264.122,13.628 264.222,13.444 264.222 C 13.261 264.222,13.111 264.322,13.111 264.444 C 13.111 264.567,12.911 264.667,12.667 264.667 C 12.422 264.667,12.222 264.756,12.222 264.864 C 12.222 264.973,11.872 265.127,11.444 265.208 C 11.017 265.288,10.667 265.449,10.667 265.566 C 10.667 265.682,10.467 265.778,10.222 265.778 C 9.978 265.778,9.778 265.878,9.778 266.000 C 9.778 266.122,9.628 266.222,9.444 266.222 C 9.261 266.222,9.111 266.322,9.111 266.444 C 9.111 266.567,8.911 266.667,8.667 266.667 C 8.422 266.667,8.222 266.756,8.222 266.864 C 8.222 266.973,7.872 267.127,7.444 267.208 C 7.017 267.288,6.667 267.449,6.667 267.566 C 6.667 267.682,6.467 267.778,6.222 267.778 C 5.978 267.778,5.778 267.878,5.778 268.000 C 5.778 268.122,5.628 268.222,5.444 268.222 C 5.261 268.222,5.111 268.322,5.111 268.444 C 5.111 268.567,4.911 268.667,4.667 268.667 C 4.422 268.667,4.222 268.756,4.222 268.864 C 4.222 268.973,3.894 269.123,3.493 269.198 C 3.092 269.274,2.620 269.535,2.444 269.779 C 2.268 270.023,1.946 270.222,1.729 270.222 C 1.511 270.222,1.333 270.322,1.333 270.444 C 1.333 270.567,1.183 270.667,1.000 270.667 C 0.817 270.667,0.667 270.767,0.667 270.889 C 0.667 271.011,0.517 271.111,0.333 271.111 C 0.126 271.111,0.000 271.321,0.000 271.667 C 0.000 272.012,0.126 272.222,0.333 272.222 C 0.517 272.222,0.667 272.122,0.667 272.000 C 0.667 271.878,0.817 271.778,1.000 271.778 C 1.183 271.778,1.333 271.678,1.333 271.556 C 1.333 271.433,1.633 271.333,2.000 271.333 C 2.367 271.333,2.667 271.238,2.667 271.121 C 2.667 271.004,3.017 270.843,3.444 270.763 C 3.872 270.683,4.222 270.528,4.222 270.420 C 4.222 270.311,4.472 270.222,4.778 270.222 C 5.083 270.222,5.333 270.122,5.333 270.000 C 5.333 269.878,5.533 269.778,5.778 269.778 C 6.022 269.778,6.222 269.678,6.222 269.556 C 6.222 269.433,6.472 269.333,6.778 269.333 C 7.083 269.333,7.333 269.239,7.333 269.125 C 7.333 269.010,7.783 268.849,8.333 268.766 C 8.883 268.684,9.333 268.528,9.333 268.419 C 9.333 268.311,9.533 268.222,9.778 268.222 C 10.022 268.222,10.222 268.122,10.222 268.000 C 10.222 267.878,10.472 267.778,10.778 267.778 C 11.083 267.778,11.333 267.678,11.333 267.556 C 11.333 267.433,11.533 267.333,11.778 267.333 C 12.022 267.333,12.222 267.246,12.222 267.140 C 12.222 267.033,12.647 266.879,13.167 266.797 C 14.234 266.629,15.333 266.197,15.333 265.946 C 15.333 265.853,15.633 265.778,16.000 265.778 C 16.367 265.778,16.667 265.678,16.667 265.556 C 16.667 265.433,16.917 265.333,17.222 265.333 C 17.528 265.333,17.778 265.245,17.778 265.136 C 17.778 265.028,18.228 264.872,18.778 264.789 C 19.328 264.707,19.778 264.546,19.778 264.431 C 19.778 264.316,20.028 264.222,20.333 264.222 C 20.639 264.222,20.889 264.122,20.889 264.000 C 20.889 263.878,21.189 263.778,21.556 263.778 C 21.922 263.778,22.222 263.678,22.222 263.556 C 22.222 263.433,22.472 263.333,22.778 263.333 C 23.083 263.333,23.333 263.247,23.333 263.140 C 23.333 263.034,23.756 262.891,24.273 262.821 C 24.790 262.752,25.248 262.589,25.292 262.459 C 25.335 262.329,25.662 262.222,26.019 262.222 C 26.375 262.222,26.667 262.122,26.667 262.000 C 26.667 261.878,26.917 261.778,27.222 261.778 C 27.528 261.778,27.778 261.678,27.778 261.556 C 27.778 261.433,28.028 261.333,28.333 261.333 C 28.639 261.333,28.889 261.245,28.889 261.137 C 28.889 261.029,29.439 260.871,30.111 260.787 C 30.783 260.703,31.333 260.542,31.333 260.428 C 31.333 260.315,31.633 260.222,32.000 260.222 C 32.367 260.222,32.667 260.122,32.667 260.000 C 32.667 259.878,32.917 259.778,33.222 259.778 C 33.528 259.778,33.778 259.678,33.778 259.556 C 33.778 259.433,34.028 259.333,34.333 259.333 C 34.639 259.333,34.889 259.241,34.889 259.129 C 34.889 259.016,35.539 258.855,36.333 258.770 C 37.128 258.684,37.778 258.527,37.778 258.419 C 37.778 258.311,38.028 258.222,38.333 258.222 C 38.639 258.222,38.889 258.122,38.889 258.000 C 38.889 257.878,39.189 257.778,39.556 257.778 C 39.922 257.778,40.222 257.678,40.222 257.556 C 40.222 257.433,40.472 257.333,40.778 257.333 C 41.083 257.333,41.333 257.243,41.333 257.133 C 41.333 257.023,41.934 256.863,42.667 256.778 C 43.401 256.693,44.057 256.533,44.125 256.423 C 44.193 256.312,44.493 256.222,44.791 256.222 C 45.089 256.222,45.333 256.122,45.333 256.000 C 45.333 255.878,45.633 255.778,46.000 255.778 C 46.367 255.778,46.667 255.678,46.667 255.556 C 46.667 255.433,47.017 255.333,47.444 255.333 C 47.872 255.333,48.222 255.238,48.222 255.122 C 48.222 255.006,48.822 254.843,49.556 254.760 C 50.289 254.677,50.889 254.522,50.889 254.416 C 50.889 254.309,51.189 254.222,51.556 254.222 C 51.922 254.222,52.222 254.122,52.222 254.000 C 52.222 253.878,52.472 253.778,52.778 253.778 C 53.083 253.778,53.333 253.678,53.333 253.556 C 53.333 253.433,53.683 253.333,54.111 253.333 C 54.539 253.333,54.889 253.248,54.889 253.143 C 54.889 253.038,55.514 252.887,56.278 252.807 C 57.042 252.728,57.700 252.563,57.741 252.442 C 57.781 252.321,58.156 252.222,58.574 252.222 C 58.992 252.222,59.333 252.122,59.333 252.000 C 59.333 251.878,59.633 251.778,60.000 251.778 C 60.367 251.778,60.667 251.678,60.667 251.556 C 60.667 251.433,61.017 251.333,61.444 251.333 C 61.872 251.333,62.222 251.246,62.222 251.140 C 62.222 251.033,62.822 250.878,63.556 250.795 C 64.289 250.712,64.889 250.550,64.889 250.433 C 64.889 250.317,65.289 250.222,65.778 250.222 C 66.267 250.222,66.667 250.122,66.667 250.000 C 66.667 249.878,67.017 249.778,67.444 249.778 C 67.872 249.778,68.222 249.678,68.222 249.556 C 68.222 249.433,68.572 249.333,69.000 249.333 C 69.428 249.333,69.778 249.243,69.778 249.134 C 69.778 249.024,70.478 248.864,71.333 248.778 C 72.189 248.692,72.889 248.532,72.889 248.422 C 72.889 248.312,73.233 248.222,73.654 248.222 C 74.074 248.222,74.480 248.122,74.556 248.000 C 74.631 247.878,75.037 247.778,75.458 247.778 C 75.878 247.778,76.222 247.678,76.222 247.556 C 76.222 247.433,76.572 247.333,77.000 247.333 C 77.428 247.333,77.778 247.243,77.778 247.134 C 77.778 247.024,78.478 246.864,79.333 246.778 C 80.189 246.692,80.889 246.532,80.889 246.422 C 80.889 246.312,81.289 246.222,81.778 246.222 C 82.267 246.222,82.667 246.122,82.667 246.000 C 82.667 245.878,83.017 245.778,83.444 245.778 C 83.872 245.778,84.222 245.678,84.222 245.556 C 84.222 245.433,84.672 245.333,85.222 245.333 C 85.772 245.333,86.222 245.243,86.222 245.134 C 86.222 245.024,86.922 244.864,87.778 244.778 C 88.633 244.692,89.333 244.532,89.333 244.422 C 89.333 244.312,89.783 244.222,90.333 244.222 C 90.883 244.222,91.333 244.122,91.333 244.000 C 91.333 243.878,91.683 243.778,92.111 243.778 C 92.539 243.778,92.889 243.678,92.889 243.556 C 92.889 243.433,93.339 243.333,93.889 243.333 C 94.439 243.333,94.889 243.244,94.889 243.134 C 94.889 243.025,95.689 242.864,96.668 242.778 C 97.646 242.691,98.502 242.531,98.570 242.421 C 98.638 242.312,99.037 242.222,99.458 242.222 C 99.878 242.222,100.222 242.122,100.222 242.000 C 100.222 241.878,100.672 241.778,101.222 241.778 C 101.772 241.778,102.222 241.678,102.222 241.556 C 102.222 241.433,102.672 241.333,103.222 241.333 C 103.772 241.333,104.222 241.245,104.222 241.137 C 104.222 241.030,105.072 240.871,106.110 240.784 C 107.149 240.698,108.055 240.536,108.123 240.425 C 108.192 240.313,108.593 240.222,109.013 240.222 C 109.434 240.222,109.778 240.122,109.778 240.000 C 109.778 239.878,110.228 239.778,110.778 239.778 C 111.328 239.778,111.778 239.678,111.778 239.556 C 111.778 239.433,112.328 239.333,113.000 239.333 C 113.672 239.333,114.222 239.244,114.222 239.135 C 114.222 239.025,115.122 238.865,116.222 238.778 C 117.322 238.691,118.222 238.530,118.222 238.421 C 118.222 238.312,118.672 238.222,119.222 238.222 C 119.772 238.222,120.222 238.122,120.222 238.000 C 120.222 237.878,120.772 237.778,121.444 237.778 C 122.117 237.778,122.667 237.678,122.667 237.556 C 122.667 237.433,123.117 237.333,123.667 237.333 C 124.217 237.333,124.667 237.243,124.667 237.132 C 124.667 237.021,125.617 236.859,126.778 236.772 C 127.939 236.685,128.889 236.526,128.889 236.418 C 128.889 236.310,129.439 236.222,130.111 236.222 C 130.783 236.222,131.333 236.122,131.333 236.000 C 131.333 235.878,131.883 235.778,132.556 235.778 C 133.228 235.778,133.778 235.678,133.778 235.556 C 133.778 235.433,134.228 235.333,134.778 235.333 C 135.328 235.333,135.778 235.244,135.778 235.135 C 135.778 235.027,136.878 234.866,138.222 234.778 C 139.567 234.690,140.667 234.529,140.667 234.420 C 140.667 234.311,141.267 234.222,142.000 234.222 C 142.741 234.222,143.333 234.123,143.333 234.000 C 143.333 233.878,143.883 233.778,144.556 233.778 C 145.228 233.778,145.778 233.678,145.778 233.556 C 145.778 233.433,146.328 233.333,147.000 233.333 C 147.672 233.333,148.222 233.243,148.222 233.133 C 148.222 233.024,149.472 232.862,151.000 232.773 C 152.528 232.685,153.778 232.525,153.778 232.418 C 153.778 232.310,154.328 232.222,155.000 232.222 C 155.672 232.222,156.222 232.122,156.222 232.000 C 156.222 231.877,156.815 231.778,157.556 231.778 C 158.296 231.778,158.889 231.679,158.889 231.556 C 158.889 231.427,159.593 231.333,160.556 231.333 C 161.472 231.333,162.222 231.243,162.222 231.133 C 162.222 231.024,163.472 230.862,165.000 230.773 C 166.528 230.685,167.778 230.525,167.778 230.418 C 167.778 230.310,168.478 230.222,169.333 230.222 C 170.222 230.222,170.889 230.127,170.889 230.000 C 170.889 229.872,171.593 229.778,172.556 229.778 C 173.519 229.778,174.222 229.684,174.222 229.556 C 174.222 229.429,174.889 229.333,175.778 229.333 C 176.633 229.333,177.333 229.245,177.333 229.138 C 177.333 229.031,178.883 228.870,180.778 228.781 C 182.672 228.693,184.222 228.530,184.222 228.421 C 184.222 228.312,185.022 228.222,186.000 228.222 C 187.037 228.222,187.778 228.130,187.778 228.000 C 187.778 227.868,188.593 227.778,189.778 227.778 C 190.963 227.778,191.778 227.687,191.778 227.556 C 191.778 227.426,192.519 227.333,193.556 227.333 C 194.533 227.333,195.333 227.246,195.333 227.139 C 195.333 227.033,197.233 226.873,199.556 226.784 C 201.878 226.694,203.778 226.532,203.778 226.422 C 203.778 226.312,204.822 226.222,206.098 226.222 C 207.405 226.222,208.478 226.125,208.556 226.000 C 208.631 225.877,209.632 225.778,210.791 225.778 C 212.041 225.778,212.889 225.688,212.889 225.556 C 212.889 225.420,213.926 225.333,215.556 225.333 C 217.022 225.333,218.222 225.244,218.222 225.135 C 218.222 225.026,220.822 224.863,224.000 224.774 C 227.178 224.684,229.778 224.523,229.778 224.416 C 229.778 224.310,231.328 224.222,233.222 224.222 C 235.370 224.222,236.667 224.139,236.667 224.000 C 236.667 223.861,238.074 223.778,240.444 223.778 C 242.815 223.778,244.222 223.695,244.222 223.556 C 244.222 223.414,245.957 223.333,248.981 223.333 C 252.591 223.333,253.763 223.266,253.833 223.056 C 253.907 222.835,260.783 222.778,287.222 222.778 C 313.662 222.778,320.538 222.835,320.611 223.056 C 320.681 223.266,321.853 223.333,325.463 223.333 C 328.488 223.333,330.222 223.414,330.222 223.556 C 330.222 223.695,331.630 223.778,334.000 223.778 C 336.370 223.778,337.778 223.861,337.778 224.000 C 337.778 224.138,339.000 224.222,341.000 224.222 C 342.772 224.222,344.222 224.310,344.222 224.416 C 344.222 224.523,346.822 224.684,350.000 224.774 C 353.178 224.863,355.778 225.026,355.778 225.135 C 355.778 225.244,356.878 225.333,358.222 225.333 C 359.704 225.333,360.667 225.421,360.667 225.556 C 360.667 225.690,361.593 225.778,363.000 225.778 C 364.407 225.778,365.333 225.866,365.333 226.000 C 365.333 226.133,366.222 226.222,367.556 226.222 C 368.778 226.222,369.778 226.311,369.778 226.419 C 369.778 226.527,371.578 226.689,373.778 226.778 C 375.978 226.867,377.778 227.029,377.778 227.137 C 377.778 227.245,378.678 227.333,379.778 227.333 C 380.963 227.333,381.778 227.424,381.778 227.556 C 381.778 227.685,382.519 227.778,383.556 227.778 C 384.593 227.778,385.333 227.870,385.333 228.000 C 385.333 228.128,386.037 228.222,387.000 228.222 C 387.917 228.222,388.667 228.309,388.667 228.416 C 388.667 228.523,390.167 228.682,392.000 228.770 C 393.833 228.859,395.333 229.022,395.333 229.132 C 395.333 229.243,396.083 229.333,397.000 229.333 C 397.963 229.333,398.667 229.427,398.667 229.556 C 398.667 229.678,398.967 229.778,399.333 229.778 C 399.896 229.778,400.000 229.691,400.000 229.222 C 400.000 228.877,399.874 228.667,399.667 228.667 C 399.483 228.667,399.333 228.592,399.332 228.500 C 399.329 228.231,398.186 227.778,397.511 227.778 C 397.169 227.778,396.889 227.683,396.889 227.567 C 396.889 227.450,396.289 227.288,395.556 227.205 C 394.822 227.122,394.222 226.967,394.222 226.860 C 394.222 226.754,393.772 226.667,393.222 226.667 C 392.672 226.667,392.222 226.567,392.222 226.444 C 392.222 226.322,391.872 226.222,391.444 226.222 C 391.017 226.222,390.667 226.122,390.667 226.000 C 390.667 225.878,390.217 225.778,389.667 225.778 C 389.117 225.778,388.667 225.688,388.667 225.579 C 388.667 225.470,387.767 225.309,386.667 225.222 C 385.567 225.135,384.667 224.975,384.667 224.865 C 384.667 224.756,384.117 224.667,383.444 224.667 C 382.772 224.667,382.222 224.567,382.222 224.444 C 382.222 224.322,381.926 224.222,381.565 224.222 L 380.908 224.222 380.843 195.741 C 380.791 173.199,380.720 167.240,380.500 167.167 C 380.334 167.111,380.222 166.680,380.222 166.093 C 380.222 165.553,380.122 165.111,380.000 165.111 C 379.878 165.111,379.778 164.811,379.778 164.444 C 379.778 164.078,379.678 163.778,379.556 163.778 C 379.433 163.778,379.333 163.528,379.333 163.222 C 379.333 162.917,379.245 162.667,379.137 162.667 C 379.029 162.667,378.871 162.117,378.787 161.444 C 378.703 160.772,378.542 160.222,378.428 160.222 C 378.315 160.222,378.222 160.022,378.222 159.778 C 378.222 159.533,378.122 159.333,378.000 159.333 C 377.878 159.333,377.778 159.183,377.778 159.000 C 377.778 158.817,377.678 158.667,377.556 158.667 C 377.433 158.667,377.333 158.467,377.333 158.222 C 377.333 157.978,377.244 157.778,377.135 157.778 C 377.026 157.778,376.874 157.528,376.798 157.222 C 376.721 156.917,376.560 156.667,376.440 156.667 C 376.320 156.667,376.222 156.489,376.222 156.271 C 376.222 156.054,376.022 155.732,375.778 155.556 C 375.533 155.379,375.333 155.150,375.333 155.046 C 375.333 154.942,375.208 154.718,375.056 154.547 C 374.460 153.883,374.222 153.569,374.222 153.446 C 374.222 153.336,373.257 152.259,372.455 151.476 C 372.312 151.336,371.722 150.747,371.144 150.167 C 370.566 149.586,369.947 149.110,369.769 149.109 C 369.590 149.108,369.208 148.808,368.919 148.442 C 368.631 148.077,368.256 147.778,368.086 147.778 C 367.917 147.778,367.778 147.680,367.778 147.560 C 367.778 147.440,367.528 147.279,367.222 147.202 C 366.917 147.126,366.667 146.974,366.667 146.865 C 366.667 146.756,366.503 146.667,366.304 146.667 C 366.104 146.667,365.779 146.487,365.582 146.266 C 365.166 145.804,363.765 145.111,363.244 145.111 C 363.049 145.111,362.889 145.011,362.889 144.889 C 362.889 144.767,362.739 144.667,362.556 144.667 C 362.372 144.667,362.222 144.567,362.222 144.444 C 362.222 144.322,361.922 144.222,361.556 144.222 C 361.189 144.222,360.889 144.147,360.889 144.054 C 360.889 143.803,359.790 143.371,358.722 143.203 C 358.203 143.121,357.778 142.967,357.778 142.860 C 357.778 142.754,357.428 142.667,357.000 142.667 C 356.572 142.667,356.222 142.567,356.222 142.444 C 356.222 142.322,355.872 142.222,355.444 142.222 C 355.017 142.222,354.667 142.122,354.667 142.000 C 354.667 141.878,354.275 141.778,353.796 141.778 C 353.318 141.778,352.893 141.684,352.852 141.570 C 352.811 141.455,351.653 141.291,350.278 141.205 C 348.903 141.118,347.778 140.962,347.778 140.857 C 347.778 140.752,346.678 140.667,345.333 140.667 C 343.852 140.667,342.889 140.579,342.889 140.444 C 342.889 140.304,341.370 140.222,338.778 140.222 C 336.185 140.222,334.667 140.304,334.667 140.444 C 334.667 140.579,333.704 140.667,332.222 140.667 C 330.878 140.667,329.778 140.755,329.778 140.862 C 329.778 140.970,328.728 141.130,327.444 141.217 C 326.161 141.305,325.111 141.466,325.111 141.577 C 325.111 141.687,324.711 141.778,324.222 141.778 C 323.733 141.778,323.333 141.878,323.333 142.000 C 323.333 142.122,322.983 142.222,322.556 142.222 C 322.128 142.222,321.778 142.322,321.778 142.444 C 321.778 142.567,321.428 142.667,321.000 142.667 C 320.572 142.667,320.222 142.754,320.222 142.860 C 320.222 142.967,319.797 143.121,319.278 143.203 C 318.210 143.371,317.111 143.803,317.111 144.054 C 317.111 144.147,316.811 144.222,316.444 144.222 C 316.078 144.222,315.778 144.322,315.778 144.444 C 315.778 144.567,315.628 144.667,315.444 144.667 C 315.261 144.667,315.111 144.758,315.111 144.869 C 315.111 144.981,314.711 145.140,314.222 145.222 C 313.733 145.305,313.333 145.464,313.333 145.575 C 313.333 145.687,313.183 145.778,313.000 145.778 C 312.817 145.778,312.667 145.878,312.667 146.000 C 312.667 146.122,312.467 146.222,312.222 146.222 C 311.978 146.222,311.778 146.322,311.778 146.444 C 311.778 146.567,311.628 146.667,311.444 146.667 C 311.261 146.667,311.111 146.756,311.111 146.864 C 311.111 146.973,310.759 147.128,310.328 147.208 C 309.898 147.289,309.424 147.550,309.275 147.789 C 309.126 148.027,308.850 148.222,308.662 148.222 C 308.474 148.222,308.176 148.422,308.000 148.667 C 307.824 148.911,307.556 149.111,307.405 149.111 C 307.255 149.111,306.881 149.361,306.576 149.667 C 306.270 149.972,305.872 150.222,305.692 150.222 C 305.511 150.222,305.300 150.422,305.222 150.667 C 305.145 150.911,304.992 151.111,304.884 151.111 C 304.776 151.111,304.437 151.361,304.131 151.667 C 303.826 151.972,303.523 152.222,303.458 152.222 C 303.129 152.222,301.111 154.357,301.111 154.706 C 301.111 154.929,301.014 155.111,300.896 155.111 C 300.582 155.111,299.111 156.634,299.111 156.958 C 299.111 157.111,298.911 157.379,298.667 157.556 C 298.422 157.732,298.222 158.017,298.222 158.190 C 298.222 158.362,298.037 158.665,297.810 158.863 C 297.583 159.060,297.326 159.447,297.239 159.722 C 297.152 159.997,296.988 160.222,296.874 160.222 C 296.760 160.222,296.667 160.422,296.667 160.667 C 296.667 160.911,296.567 161.111,296.444 161.111 C 296.322 161.111,296.222 161.261,296.222 161.444 C 296.222 161.628,296.122 161.778,296.000 161.778 C 295.878 161.778,295.778 161.978,295.778 162.222 C 295.778 162.467,295.682 162.667,295.566 162.667 C 295.449 162.667,295.288 163.017,295.208 163.444 C 295.127 163.872,294.973 164.222,294.864 164.222 C 294.756 164.222,294.667 164.472,294.667 164.778 C 294.667 165.083,294.567 165.333,294.444 165.333 C 294.322 165.333,294.222 165.633,294.222 166.000 C 294.222 166.367,294.122 166.667,294.000 166.667 C 293.878 166.667,293.778 166.897,293.778 167.178 C 293.778 167.459,293.676 167.791,293.552 167.915 C 293.427 168.039,293.263 168.959,293.185 169.959 C 293.108 170.959,292.960 171.778,292.856 171.778 C 292.752 171.778,292.667 172.028,292.667 172.333 L 292.667 172.889 305.417 172.889 C 319.368 172.889,318.492 172.980,318.759 171.500 C 318.841 171.042,319.004 170.667,319.121 170.667 C 319.238 170.667,319.333 170.489,319.333 170.271 C 319.333 170.054,319.533 169.732,319.778 169.556 C 320.022 169.379,320.222 169.153,320.222 169.053 C 320.222 168.786,321.453 167.415,322.488 166.530 C 322.647 166.393,322.925 166.068,323.105 165.808 C 323.284 165.547,323.609 165.333,323.827 165.333 C 324.044 165.333,324.222 165.235,324.222 165.115 C 324.222 164.995,324.472 164.835,324.778 164.758 C 325.083 164.681,325.333 164.529,325.333 164.420 C 325.333 164.311,325.533 164.222,325.778 164.222 C 326.022 164.222,326.222 164.122,326.222 164.000 C 326.222 163.878,326.372 163.778,326.556 163.778 C 326.739 163.778,326.889 163.678,326.889 163.556 C 326.889 163.433,327.089 163.333,327.333 163.333 C 327.578 163.333,327.778 163.239,327.778 163.125 C 327.778 163.010,328.228 162.849,328.778 162.766 C 329.328 162.684,329.778 162.528,329.778 162.419 C 329.778 162.311,330.128 162.222,330.556 162.222 C 330.983 162.222,331.333 162.122,331.333 162.000 C 331.333 161.878,331.683 161.778,332.111 161.778 C 332.539 161.778,332.889 161.678,332.889 161.556 C 332.889 161.433,333.339 161.333,333.889 161.333 C 334.439 161.333,334.889 161.233,334.889 161.111 C 334.889 160.970,336.519 160.889,339.333 160.889 C 342.148 160.889,343.778 160.970,343.778 161.111 C 343.778 161.233,344.228 161.333,344.778 161.333 C 345.328 161.333,345.778 161.433,345.778 161.556 C 345.778 161.678,346.228 161.778,346.778 161.778 C 347.328 161.778,347.778 161.878,347.778 162.000 C 347.778 162.122,348.069 162.222,348.426 162.222 C 348.782 162.222,349.110 162.329,349.153 162.459 C 349.196 162.589,349.655 162.752,350.171 162.821 C 350.688 162.891,351.111 163.034,351.111 163.140 C 351.111 163.247,351.239 163.333,351.395 163.333 C 351.552 163.333,351.824 163.533,352.000 163.778 C 352.176 164.022,352.448 164.222,352.605 164.222 C 352.996 164.222,355.333 166.610,355.333 167.010 C 355.333 167.188,355.433 167.333,355.556 167.333 C 355.678 167.333,355.778 167.577,355.778 167.876 C 355.778 168.174,355.878 168.480,356.000 168.556 C 356.122 168.631,356.222 169.237,356.222 169.902 C 356.222 170.567,356.122 171.111,356.000 171.111 C 355.878 171.111,355.778 171.361,355.778 171.667 C 355.778 171.972,355.678 172.222,355.556 172.222 C 355.433 172.222,355.333 172.382,355.333 172.578 C 355.333 173.014,353.329 175.012,352.688 175.216 C 352.432 175.297,352.222 175.457,352.222 175.571 C 352.222 175.685,352.022 175.778,351.778 175.778 C 351.533 175.778,351.333 175.878,351.333 176.000 C 351.333 176.122,351.183 176.222,351.000 176.222 C 350.817 176.222,350.667 176.322,350.667 176.444 C 350.667 176.567,350.467 176.667,350.222 176.667 C 349.978 176.667,349.778 176.759,349.778 176.873 C 349.778 176.986,349.228 177.148,348.556 177.232 C 347.883 177.316,347.333 177.473,347.333 177.581 C 347.333 177.689,346.983 177.778,346.556 177.778 C 346.128 177.778,345.778 177.878,345.778 178.000 C 345.778 178.122,345.328 178.222,344.778 178.222 C 344.228 178.222,343.778 178.322,343.778 178.444 C 343.778 178.567,343.328 178.667,342.778 178.667 C 342.228 178.667,341.778 178.757,341.778 178.867 C 341.778 178.977,340.628 179.139,339.222 179.227 C 337.817 179.315,336.667 179.475,336.667 179.582 C 336.667 179.690,335.867 179.778,334.889 179.778 C 333.852 179.778,333.111 179.870,333.111 180.000 C 333.111 180.132,332.296 180.222,331.111 180.222 C 329.926 180.222,329.111 180.313,329.111 180.444 C 329.111 180.576,328.296 180.667,327.111 180.667 C 326.011 180.667,325.111 180.753,325.111 180.858 C 325.111 180.963,323.786 181.120,322.167 181.207 C 320.547 181.294,319.189 181.458,319.148 181.572 C 319.107 181.685,318.632 181.778,318.093 181.778 C 317.553 181.778,317.111 181.878,317.111 182.000 C 317.111 182.122,316.661 182.222,316.111 182.222 C 315.561 182.222,315.111 182.322,315.111 182.444 C 315.111 182.567,314.661 182.667,314.111 182.667 C 313.561 182.667,313.111 182.759,313.111 182.871 C 313.111 182.984,312.461 183.145,311.667 183.230 C 310.872 183.316,310.222 183.473,310.222 183.581 C 310.222 183.689,309.972 183.778,309.667 183.778 C 309.361 183.778,309.111 183.878,309.111 184.000 C 309.111 184.122,308.811 184.222,308.444 184.222 C 308.078 184.222,307.778 184.322,307.778 184.444 C 307.778 184.567,307.528 184.667,307.222 184.667 C 306.917 184.667,306.667 184.761,306.667 184.875 C 306.667 184.990,306.217 185.151,305.667 185.234 C 305.117 185.316,304.667 185.472,304.667 185.581 C 304.667 185.689,304.467 185.778,304.222 185.778 C 303.978 185.778,303.778 185.878,303.778 186.000 C 303.778 186.122,303.628 186.222,303.444 186.222 C 303.261 186.222,303.111 186.322,303.111 186.444 C 303.111 186.567,302.911 186.667,302.667 186.667 C 302.422 186.667,302.222 186.767,302.222 186.889 C 302.222 187.011,302.019 187.111,301.771 187.111 C 301.523 187.111,301.262 187.261,301.191 187.444 C 301.121 187.628,300.896 187.778,300.692 187.778 C 300.488 187.778,300.176 187.978,300.000 188.222 C 299.824 188.467,299.552 188.667,299.395 188.667 C 299.239 188.667,299.111 188.747,299.111 188.846 C 299.111 188.945,298.716 189.200,298.234 189.413 C 297.751 189.626,297.301 189.973,297.234 190.184 C 297.167 190.395,296.899 190.715,296.637 190.895 C 296.375 191.075,295.950 191.446,295.692 191.720 C 294.629 192.846,294.222 193.324,294.222 193.447 C 294.222 193.518,293.972 193.826,293.667 194.131 C 293.361 194.437,293.111 194.832,293.111 195.010 C 293.111 195.188,293.011 195.333,292.889 195.333 C 292.767 195.333,292.667 195.497,292.667 195.696 C 292.667 195.896,292.491 196.221,292.276 196.418 C 291.790 196.866,291.402 197.669,291.218 198.611 C 291.140 199.008,290.984 199.333,290.871 199.333 C 290.759 199.333,290.667 199.633,290.667 200.000 C 290.667 200.367,290.567 200.667,290.444 200.667 C 290.322 200.667,290.222 201.017,290.222 201.444 C 290.222 201.872,290.122 202.222,290.000 202.222 C 289.878 202.222,289.778 202.664,289.778 203.204 C 289.778 203.744,289.663 204.223,289.523 204.270 C 289.119 204.405,289.167 215.093,289.572 215.343 C 289.739 215.447,289.790 215.612,289.685 215.710 C 289.581 215.808,289.450 215.764,289.396 215.611 C 289.319 215.397,287.620 215.333,281.926 215.331 C 277.872 215.330,274.031 215.266,273.389 215.189 L 272.222 215.049 272.222 157.636 L 272.222 100.222 259.667 100.222 L 247.111 100.222 247.111 125.833 M107.333 139.222 C 107.333 139.528,107.433 139.778,107.556 139.778 C 107.678 139.778,107.778 140.028,107.778 140.333 C 107.778 140.639,107.878 140.889,108.000 140.889 C 108.122 140.889,108.222 141.189,108.222 141.556 C 108.222 141.922,108.322 142.222,108.444 142.222 C 108.567 142.222,108.667 142.472,108.667 142.778 C 108.667 143.083,108.755 143.333,108.863 143.333 C 108.971 143.333,109.129 143.883,109.213 144.556 C 109.297 145.228,109.458 145.778,109.572 145.778 C 109.685 145.778,109.778 146.028,109.778 146.333 C 109.778 146.639,109.878 146.889,110.000 146.889 C 110.122 146.889,110.222 147.189,110.222 147.556 C 110.222 147.922,110.322 148.222,110.444 148.222 C 110.567 148.222,110.667 148.472,110.667 148.778 C 110.667 149.083,110.755 149.333,110.863 149.333 C 110.971 149.333,111.129 149.883,111.213 150.556 C 111.297 151.228,111.458 151.778,111.572 151.778 C 111.685 151.778,111.778 152.028,111.778 152.333 C 111.778 152.639,111.878 152.889,112.000 152.889 C 112.122 152.889,112.222 153.089,112.222 153.333 C 112.222 153.578,112.322 153.778,112.444 153.778 C 112.567 153.778,112.667 154.028,112.667 154.333 C 112.667 154.639,112.755 154.889,112.863 154.889 C 112.971 154.889,113.129 155.439,113.213 156.111 C 113.297 156.783,113.458 157.333,113.572 157.333 C 113.685 157.333,113.778 157.633,113.778 158.000 C 113.778 158.367,113.878 158.667,114.000 158.667 C 114.122 158.667,114.222 158.917,114.222 159.222 C 114.222 159.528,114.322 159.778,114.444 159.778 C 114.567 159.778,114.667 160.028,114.667 160.333 C 114.667 160.639,114.755 160.889,114.863 160.889 C 114.971 160.889,115.129 161.439,115.213 162.111 C 115.297 162.783,115.458 163.333,115.572 163.333 C 115.685 163.333,115.778 163.633,115.778 164.000 C 115.778 164.367,115.878 164.667,116.000 164.667 C 116.122 164.667,116.222 164.917,116.222 165.222 C 116.222 165.528,116.322 165.778,116.444 165.778 C 116.567 165.778,116.667 166.028,116.667 166.333 C 116.667 166.639,116.755 166.889,116.863 166.889 C 116.971 166.889,117.129 167.439,117.213 168.111 C 117.297 168.783,117.458 169.333,117.572 169.333 C 117.685 169.333,117.778 169.533,117.778 169.778 C 117.778 170.022,117.878 170.222,118.000 170.222 C 118.122 170.222,118.222 170.472,118.222 170.778 C 118.222 171.083,118.322 171.333,118.444 171.333 C 118.567 171.333,118.667 171.633,118.667 172.000 C 118.667 172.367,118.757 172.667,118.868 172.667 C 118.979 172.667,119.138 173.167,119.222 173.778 C 119.306 174.389,119.466 174.889,119.576 174.889 C 119.687 174.889,119.778 175.189,119.778 175.556 C 119.778 175.922,119.878 176.222,120.000 176.222 C 120.122 176.222,120.222 176.472,120.222 176.778 C 120.222 177.083,120.322 177.333,120.444 177.333 C 120.567 177.333,120.667 177.633,120.667 178.000 C 120.667 178.367,120.757 178.667,120.868 178.667 C 120.979 178.667,121.138 179.167,121.222 179.778 C 121.306 180.389,121.466 180.889,121.576 180.889 C 121.687 180.889,121.778 181.189,121.778 181.556 C 121.778 181.922,121.878 182.222,122.000 182.222 C 122.122 182.222,122.222 182.472,122.222 182.778 C 122.222 183.083,122.322 183.333,122.444 183.333 C 122.567 183.333,122.667 183.633,122.667 184.000 C 122.667 184.367,122.755 184.667,122.864 184.667 C 122.972 184.667,123.128 185.117,123.211 185.667 C 123.293 186.217,123.454 186.667,123.569 186.667 C 123.684 186.667,123.778 186.917,123.778 187.222 C 123.778 187.528,123.878 187.778,124.000 187.778 C 124.122 187.778,124.222 188.028,124.222 188.333 C 124.222 188.639,124.322 188.889,124.444 188.889 C 124.567 188.889,124.667 189.089,124.667 189.333 C 124.667 189.774,124.519 189.778,107.222 189.778 C 89.926 189.778,89.778 189.774,89.778 189.333 C 89.778 189.089,89.878 188.889,90.000 188.889 C 90.122 188.889,90.222 188.639,90.222 188.333 C 90.222 188.028,90.315 187.778,90.428 187.778 C 90.542 187.778,90.703 187.228,90.787 186.556 C 90.871 185.883,91.029 185.333,91.137 185.333 C 91.245 185.333,91.333 185.083,91.333 184.778 C 91.333 184.472,91.433 184.222,91.556 184.222 C 91.678 184.222,91.778 184.022,91.778 183.778 C 91.778 183.533,91.878 183.333,92.000 183.333 C 92.122 183.333,92.222 183.089,92.222 182.791 C 92.222 182.493,92.313 182.192,92.424 182.124 C 92.534 182.056,92.694 181.500,92.778 180.889 C 92.862 180.278,93.021 179.778,93.132 179.778 C 93.243 179.778,93.333 179.528,93.333 179.222 C 93.333 178.917,93.433 178.667,93.556 178.667 C 93.678 178.667,93.778 178.367,93.778 178.000 C 93.778 177.633,93.878 177.333,94.000 177.333 C 94.122 177.333,94.222 177.083,94.222 176.778 C 94.222 176.472,94.311 176.222,94.419 176.222 C 94.527 176.222,94.684 175.672,94.768 175.000 C 94.852 174.328,95.014 173.778,95.127 173.778 C 95.241 173.778,95.333 173.528,95.333 173.222 C 95.333 172.917,95.433 172.667,95.556 172.667 C 95.678 172.667,95.778 172.367,95.778 172.000 C 95.778 171.633,95.878 171.333,96.000 171.333 C 96.122 171.333,96.222 171.083,96.222 170.778 C 96.222 170.472,96.311 170.222,96.419 170.222 C 96.527 170.222,96.684 169.672,96.768 169.000 C 96.852 168.328,97.014 167.778,97.127 167.778 C 97.241 167.778,97.333 167.578,97.333 167.333 C 97.333 167.089,97.433 166.889,97.556 166.889 C 97.678 166.889,97.778 166.639,97.778 166.333 C 97.778 166.028,97.878 165.778,98.000 165.778 C 98.122 165.778,98.222 165.534,98.222 165.235 C 98.222 164.937,98.313 164.637,98.424 164.568 C 98.534 164.500,98.694 163.944,98.778 163.333 C 98.862 162.722,99.021 162.222,99.132 162.222 C 99.243 162.222,99.333 161.922,99.333 161.556 C 99.333 161.189,99.433 160.889,99.556 160.889 C 99.678 160.889,99.778 160.639,99.778 160.333 C 99.778 160.028,99.878 159.778,100.000 159.778 C 100.122 159.778,100.222 159.528,100.222 159.222 C 100.222 158.917,100.311 158.667,100.419 158.667 C 100.527 158.667,100.684 158.117,100.768 157.444 C 100.852 156.772,101.014 156.222,101.127 156.222 C 101.241 156.222,101.333 155.922,101.333 155.556 C 101.333 155.189,101.433 154.889,101.556 154.889 C 101.678 154.889,101.778 154.639,101.778 154.333 C 101.778 154.028,101.878 153.778,102.000 153.778 C 102.122 153.778,102.222 153.528,102.222 153.222 C 102.222 152.917,102.309 152.667,102.415 152.667 C 102.521 152.667,102.665 152.244,102.734 151.727 C 102.804 151.210,102.967 150.752,103.097 150.708 C 103.227 150.665,103.333 150.338,103.333 149.981 C 103.333 149.625,103.433 149.333,103.556 149.333 C 103.678 149.333,103.778 149.083,103.778 148.778 C 103.778 148.472,103.878 148.222,104.000 148.222 C 104.122 148.222,104.222 147.922,104.222 147.556 C 104.222 147.189,104.313 146.889,104.424 146.889 C 104.534 146.889,104.694 146.389,104.778 145.778 C 104.862 145.167,105.021 144.667,105.132 144.667 C 105.243 144.667,105.333 144.367,105.333 144.000 C 105.333 143.633,105.433 143.333,105.556 143.333 C 105.678 143.333,105.778 143.083,105.778 142.778 C 105.778 142.472,105.878 142.222,106.000 142.222 C 106.122 142.222,106.222 141.922,106.222 141.556 C 106.222 141.189,106.313 140.889,106.424 140.889 C 106.534 140.889,106.694 140.389,106.778 139.778 C 106.935 138.633,107.333 138.235,107.333 139.222 M224.667 164.412 C 224.667 164.516,225.542 164.668,226.611 164.750 C 227.681 164.832,228.589 164.997,228.630 165.116 C 228.670 165.236,228.945 165.333,229.241 165.333 C 229.536 165.333,229.778 165.433,229.778 165.556 C 229.778 165.678,230.078 165.778,230.444 165.778 C 230.811 165.778,231.111 165.878,231.111 166.000 C 231.111 166.122,231.261 166.222,231.444 166.222 C 231.628 166.222,231.778 166.311,231.778 166.420 C 231.778 166.528,232.106 166.679,232.507 166.754 C 232.908 166.829,233.380 167.090,233.556 167.334 C 233.732 167.578,234.054 167.778,234.271 167.778 C 234.489 167.778,234.667 167.878,234.667 168.000 C 234.667 168.122,234.771 168.222,234.898 168.222 C 235.140 168.222,235.442 168.444,236.334 169.278 C 236.628 169.553,236.927 169.778,236.998 169.778 C 237.297 169.778,240.222 172.701,240.222 173.000 C 240.222 173.072,240.472 173.381,240.778 173.687 C 241.083 173.992,241.333 174.366,241.333 174.517 C 241.333 174.667,241.533 174.935,241.778 175.111 C 242.022 175.287,242.222 175.587,242.222 175.778 C 242.222 175.968,242.422 176.268,242.666 176.444 C 242.910 176.620,243.171 177.092,243.246 177.493 C 243.321 177.894,243.472 178.222,243.580 178.222 C 243.689 178.222,243.778 178.372,243.778 178.556 C 243.778 178.739,243.878 178.889,244.000 178.889 C 244.122 178.889,244.222 179.089,244.222 179.333 C 244.222 179.578,244.322 179.778,244.444 179.778 C 244.567 179.778,244.667 179.978,244.667 180.222 C 244.667 180.467,244.757 180.667,244.868 180.667 C 244.979 180.667,245.138 181.167,245.222 181.778 C 245.306 182.389,245.466 182.889,245.576 182.889 C 245.687 182.889,245.778 183.289,245.778 183.778 C 245.778 184.267,245.878 184.667,246.000 184.667 C 246.122 184.667,246.222 185.117,246.222 185.667 C 246.222 186.217,246.322 186.667,246.444 186.667 C 246.571 186.667,246.667 187.333,246.667 188.222 C 246.667 189.111,246.762 189.778,246.889 189.778 C 247.017 189.778,247.111 190.481,247.111 191.444 C 247.111 192.407,247.017 193.111,246.889 193.111 C 246.762 193.111,246.667 193.778,246.667 194.667 C 246.667 195.556,246.571 196.222,246.444 196.222 C 246.322 196.222,246.222 196.672,246.222 197.222 C 246.222 197.772,246.122 198.222,246.000 198.222 C 245.878 198.222,245.778 198.466,245.778 198.765 C 245.778 199.063,245.691 199.361,245.585 199.426 C 245.479 199.492,245.339 200.019,245.274 200.599 C 245.208 201.178,245.045 201.689,244.911 201.733 C 244.777 201.778,244.667 202.106,244.667 202.463 C 244.667 202.819,244.567 203.111,244.444 203.111 C 244.322 203.111,244.222 203.261,244.222 203.444 C 244.222 203.628,244.122 203.778,244.000 203.778 C 243.878 203.778,243.778 203.978,243.778 204.222 C 243.778 204.467,243.689 204.667,243.580 204.667 C 243.471 204.667,243.319 204.917,243.242 205.222 C 243.165 205.528,243.005 205.778,242.885 205.778 C 242.765 205.778,242.667 205.956,242.667 206.173 C 242.667 206.391,242.467 206.713,242.222 206.889 C 241.978 207.065,241.778 207.291,241.778 207.392 C 241.778 207.565,241.581 207.838,240.944 208.547 C 240.792 208.718,240.667 208.918,240.667 208.992 C 240.667 209.167,239.449 210.462,237.913 211.920 C 237.472 212.339,237.111 212.778,237.111 212.896 C 237.111 213.014,236.916 213.111,236.677 213.111 C 236.438 213.111,235.992 213.361,235.687 213.667 C 235.381 213.972,235.027 214.222,234.899 214.222 C 234.771 214.222,234.667 214.322,234.667 214.444 C 234.667 214.567,234.510 214.667,234.317 214.667 C 234.125 214.667,233.818 214.817,233.635 215.000 C 233.414 215.221,232.859 215.333,231.984 215.333 C 231.254 215.333,230.667 215.432,230.667 215.556 C 230.667 215.697,228.926 215.778,225.889 215.778 C 222.852 215.778,221.111 215.859,221.111 216.000 C 221.111 216.140,219.667 216.222,217.222 216.222 C 215.083 216.222,213.333 216.146,213.333 216.052 C 213.333 215.846,211.684 215.111,211.221 215.111 C 211.038 215.111,210.889 215.011,210.889 214.889 C 210.889 214.767,210.761 214.667,210.605 214.667 C 210.448 214.667,210.176 214.467,210.000 214.222 C 209.824 213.978,209.550 213.778,209.391 213.778 C 209.233 213.778,208.763 213.428,208.348 213.000 C 207.933 212.572,207.441 212.222,207.256 212.222 C 207.070 212.222,206.855 212.022,206.778 211.778 C 206.700 211.533,206.554 211.333,206.453 211.333 C 206.140 211.333,204.889 210.061,204.889 209.742 C 204.889 209.576,204.541 209.141,204.116 208.776 C 203.691 208.410,203.341 207.947,203.338 207.746 C 203.335 207.545,203.183 207.323,203.000 207.253 C 202.817 207.183,202.667 206.922,202.667 206.674 C 202.667 206.425,202.567 206.222,202.444 206.222 C 202.322 206.222,202.222 206.073,202.222 205.891 C 202.222 205.708,202.022 205.434,201.778 205.282 C 201.533 205.129,201.333 204.828,201.333 204.613 C 201.333 204.398,201.239 204.222,201.125 204.222 C 201.010 204.222,200.849 203.772,200.766 203.222 C 200.684 202.672,200.528 202.222,200.419 202.222 C 200.311 202.222,200.222 202.022,200.222 201.778 C 200.222 201.533,200.122 201.333,200.000 201.333 C 199.878 201.333,199.778 201.083,199.778 200.778 C 199.778 200.472,199.678 200.222,199.556 200.222 C 199.433 200.222,199.333 199.881,199.333 199.463 C 199.333 199.045,199.232 198.670,199.109 198.629 C 198.985 198.588,198.820 197.579,198.742 196.388 C 198.664 195.197,198.515 194.222,198.411 194.222 C 198.150 194.222,198.172 188.974,198.435 188.497 C 198.551 188.285,198.711 187.136,198.789 185.944 C 198.867 184.753,199.021 183.778,199.132 183.778 C 199.243 183.778,199.333 183.528,199.333 183.222 C 199.333 182.917,199.433 182.667,199.556 182.667 C 199.678 182.667,199.778 182.367,199.778 182.000 C 199.778 181.633,199.878 181.333,200.000 181.333 C 200.122 181.333,200.222 181.083,200.222 180.778 C 200.222 180.472,200.311 180.222,200.420 180.222 C 200.528 180.222,200.683 179.872,200.763 179.444 C 200.843 179.017,201.004 178.667,201.121 178.667 C 201.238 178.667,201.333 178.467,201.333 178.222 C 201.333 177.978,201.433 177.778,201.556 177.778 C 201.678 177.778,201.778 177.578,201.778 177.333 C 201.778 177.089,201.878 176.889,202.000 176.889 C 202.122 176.889,202.222 176.782,202.222 176.651 C 202.222 176.520,202.372 176.263,202.556 176.079 C 202.739 175.896,202.889 175.560,202.889 175.332 C 202.889 175.105,203.089 174.855,203.333 174.778 C 203.578 174.700,203.778 174.485,203.778 174.299 C 203.778 174.113,204.228 173.523,204.778 172.988 C 205.328 172.454,205.778 171.900,205.778 171.757 C 205.778 171.460,206.628 170.667,206.945 170.667 C 207.061 170.667,207.580 170.217,208.100 169.667 C 208.619 169.117,209.187 168.667,209.362 168.667 C 209.537 168.667,209.824 168.467,210.000 168.222 C 210.176 167.978,210.448 167.778,210.605 167.778 C 210.761 167.778,210.889 167.678,210.889 167.556 C 210.889 167.433,211.089 167.333,211.333 167.333 C 211.578 167.333,211.778 167.244,211.778 167.136 C 211.778 167.027,212.128 166.873,212.556 166.792 C 212.983 166.712,213.333 166.551,213.333 166.434 C 213.333 166.318,213.533 166.222,213.778 166.222 C 214.022 166.222,214.222 166.122,214.222 166.000 C 214.222 165.878,214.372 165.778,214.556 165.778 C 214.739 165.778,214.889 165.678,214.889 165.556 C 214.889 165.433,215.181 165.333,215.537 165.333 C 215.894 165.333,216.219 165.236,216.259 165.116 C 216.300 164.997,217.208 164.832,218.278 164.750 C 219.347 164.668,220.222 164.516,220.222 164.412 C 220.222 164.307,221.222 164.222,222.444 164.222 C 223.667 164.222,224.667 164.307,224.667 164.412 M356.893 205.073 C 356.768 205.114,356.667 205.490,356.667 205.907 C 356.667 206.325,356.592 206.667,356.500 206.668 C 356.275 206.671,355.778 207.770,355.778 208.267 C 355.778 208.487,355.685 208.667,355.571 208.667 C 355.457 208.667,355.292 208.892,355.205 209.167 C 355.119 209.442,354.862 209.828,354.635 210.026 C 354.408 210.224,354.222 210.542,354.222 210.733 C 354.222 210.925,354.022 211.145,353.778 211.222 C 353.533 211.300,353.333 211.453,353.333 211.563 C 353.333 211.866,351.802 213.333,351.486 213.333 C 351.334 213.333,351.065 213.533,350.889 213.778 C 350.713 214.022,350.413 214.222,350.222 214.222 C 350.032 214.222,349.732 214.422,349.556 214.666 C 349.380 214.910,348.908 215.171,348.507 215.246 C 348.106 215.321,347.778 215.472,347.778 215.580 C 347.778 215.689,347.628 215.778,347.444 215.778 C 347.261 215.778,347.111 215.878,347.111 216.000 C 347.111 216.122,346.811 216.222,346.444 216.222 C 346.078 216.222,345.778 216.322,345.778 216.444 C 345.778 216.567,345.628 216.667,345.444 216.667 C 345.261 216.667,345.111 216.752,345.111 216.857 C 345.111 216.962,344.486 217.113,343.722 217.193 C 342.958 217.272,342.300 217.437,342.259 217.558 C 342.219 217.679,341.744 217.778,341.204 217.778 C 340.664 217.778,340.222 217.878,340.222 218.000 C 340.222 218.122,339.672 218.222,339.000 218.222 C 338.328 218.222,337.778 218.322,337.778 218.444 C 337.778 218.571,337.111 218.667,336.222 218.667 C 335.333 218.667,334.667 218.571,334.667 218.444 C 334.667 218.311,333.778 218.222,332.444 218.222 C 331.111 218.222,330.222 218.133,330.222 218.000 C 330.222 217.864,329.185 217.778,327.556 217.778 C 326.089 217.778,324.889 217.687,324.889 217.576 C 324.889 217.466,323.872 217.341,322.629 217.299 C 321.076 217.246,320.341 217.135,320.278 216.944 C 320.227 216.792,319.994 216.667,319.759 216.667 C 319.525 216.667,319.333 216.567,319.333 216.444 C 319.333 216.322,319.229 216.222,319.101 216.222 C 318.973 216.222,318.624 215.997,318.326 215.722 C 316.975 214.478,316.748 214.254,316.278 213.699 C 316.003 213.374,315.778 213.008,315.778 212.887 C 315.778 212.766,315.678 212.667,315.556 212.667 C 315.433 212.667,315.333 212.467,315.333 212.222 C 315.333 211.978,315.233 211.778,315.111 211.778 C 314.981 211.778,314.889 211.037,314.889 210.000 C 314.889 208.963,314.981 208.222,315.111 208.222 C 315.233 208.222,315.333 207.922,315.333 207.556 C 315.333 207.189,315.433 206.889,315.556 206.889 C 315.678 206.889,315.778 206.784,315.778 206.657 C 315.778 206.288,318.217 203.778,318.575 203.778 C 318.658 203.778,318.887 203.591,319.085 203.363 C 319.283 203.135,319.770 202.877,320.167 202.790 C 320.564 202.703,320.889 202.539,320.889 202.427 C 320.889 202.314,321.189 202.222,321.556 202.222 C 321.922 202.222,322.222 202.122,322.222 202.000 C 322.222 201.878,322.472 201.778,322.778 201.778 C 323.083 201.778,323.333 201.678,323.333 201.556 C 323.333 201.433,323.633 201.333,324.000 201.333 C 324.367 201.333,324.667 201.240,324.667 201.126 C 324.667 201.013,325.467 200.850,326.444 200.764 C 327.422 200.679,328.222 200.522,328.222 200.416 C 328.222 200.309,328.772 200.222,329.444 200.222 C 330.117 200.222,330.667 200.122,330.667 200.000 C 330.667 199.873,331.333 199.778,332.222 199.778 C 333.111 199.778,333.778 199.683,333.778 199.556 C 333.778 199.426,334.519 199.333,335.556 199.333 C 336.533 199.333,337.333 199.246,337.333 199.140 C 337.333 199.033,338.533 198.874,340.000 198.787 C 341.467 198.699,342.667 198.536,342.667 198.425 C 342.667 198.313,343.167 198.222,343.778 198.222 C 344.389 198.222,344.889 198.122,344.889 198.000 C 344.889 197.878,345.289 197.778,345.778 197.778 C 346.267 197.778,346.667 197.678,346.667 197.556 C 346.667 197.433,347.017 197.333,347.444 197.333 C 347.872 197.333,348.222 197.246,348.222 197.140 C 348.222 197.033,348.822 196.878,349.556 196.795 C 350.289 196.712,350.889 196.550,350.889 196.433 C 350.889 196.317,351.189 196.222,351.556 196.222 C 351.922 196.222,352.222 196.122,352.222 196.000 C 352.222 195.878,352.472 195.778,352.778 195.778 C 353.083 195.778,353.333 195.678,353.333 195.556 C 353.333 195.433,353.633 195.333,354.000 195.333 C 354.367 195.333,354.667 195.233,354.667 195.111 C 354.667 194.989,354.910 194.889,355.206 194.889 C 355.503 194.889,355.896 194.739,356.079 194.556 C 356.263 194.372,356.520 194.222,356.651 194.222 C 356.782 194.222,356.912 194.097,356.940 193.944 C 356.969 193.792,357.021 196.216,357.055 199.332 C 357.097 203.033,357.041 205.024,356.893 205.073 M133.211 214.778 C 133.293 215.328,133.454 215.778,133.569 215.778 C 133.684 215.778,133.778 216.028,133.778 216.333 C 133.778 216.639,133.878 216.889,134.000 216.889 C 134.122 216.889,134.222 217.189,134.222 217.556 C 134.222 217.922,134.322 218.222,134.444 218.222 C 134.567 218.222,134.667 218.472,134.667 218.778 C 134.667 219.083,134.755 219.333,134.863 219.333 C 134.971 219.333,135.129 219.883,135.213 220.556 C 135.297 221.228,135.458 221.778,135.572 221.778 C 135.685 221.778,135.778 222.028,135.778 222.333 C 135.778 222.639,135.878 222.889,136.000 222.889 C 136.122 222.889,136.222 223.189,136.222 223.556 C 136.222 223.922,136.322 224.222,136.444 224.222 C 136.779 224.222,136.711 225.098,136.349 225.460 C 136.175 225.635,135.625 225.778,135.127 225.778 C 134.629 225.778,134.222 225.878,134.222 226.000 C 134.222 226.122,133.672 226.222,133.000 226.222 C 132.328 226.222,131.778 226.322,131.778 226.444 C 131.778 226.567,131.328 226.667,130.778 226.667 C 130.228 226.667,129.778 226.756,129.778 226.865 C 129.778 226.975,128.878 227.135,127.778 227.222 C 126.678 227.309,125.778 227.470,125.778 227.579 C 125.778 227.688,125.328 227.778,124.778 227.778 C 124.228 227.778,123.778 227.878,123.778 228.000 C 123.778 228.122,123.328 228.222,122.778 228.222 C 122.228 228.222,121.778 228.322,121.778 228.444 C 121.778 228.567,121.328 228.667,120.778 228.667 C 120.228 228.667,119.778 228.760,119.778 228.874 C 119.778 228.987,118.978 229.150,118.000 229.236 C 117.022 229.321,116.222 229.478,116.222 229.584 C 116.222 229.691,115.872 229.778,115.444 229.778 C 115.017 229.778,114.667 229.878,114.667 230.000 C 114.667 230.122,114.217 230.222,113.667 230.222 C 113.117 230.222,112.667 230.322,112.667 230.444 C 112.667 230.567,112.317 230.667,111.889 230.667 C 111.461 230.667,111.111 230.754,111.111 230.860 C 111.111 230.967,110.313 231.123,109.337 231.208 C 108.362 231.294,107.506 231.456,107.435 231.570 C 107.365 231.684,106.963 231.778,106.542 231.778 C 106.122 231.778,105.778 231.878,105.778 232.000 C 105.778 232.122,105.428 232.222,105.000 232.222 C 104.572 232.222,104.222 232.322,104.222 232.444 C 104.222 232.567,103.872 232.667,103.444 232.667 C 103.017 232.667,102.667 232.758,102.667 232.870 C 102.667 232.982,101.917 233.143,101.000 233.229 C 100.083 233.315,99.333 233.474,99.333 233.582 C 99.333 233.690,98.983 233.778,98.556 233.778 C 98.128 233.778,97.778 233.878,97.778 234.000 C 97.778 234.122,97.428 234.222,97.000 234.222 C 96.572 234.222,96.222 234.322,96.222 234.444 C 96.222 234.567,95.872 234.667,95.444 234.667 C 95.017 234.667,94.667 234.757,94.667 234.866 C 94.667 234.976,93.966 235.136,93.110 235.222 C 92.254 235.308,91.498 235.468,91.430 235.578 C 91.363 235.688,91.063 235.778,90.765 235.778 C 90.466 235.778,90.222 235.878,90.222 236.000 C 90.222 236.122,89.872 236.222,89.444 236.222 C 89.017 236.222,88.667 236.322,88.667 236.444 C 88.667 236.567,88.317 236.667,87.889 236.667 C 87.461 236.667,87.111 236.759,87.111 236.871 C 87.111 236.984,86.461 237.145,85.667 237.230 C 84.872 237.316,84.222 237.473,84.222 237.581 C 84.222 237.689,83.972 237.778,83.667 237.778 C 83.361 237.778,83.111 237.878,83.111 238.000 C 83.111 238.122,82.711 238.222,82.222 238.222 C 81.733 238.222,81.333 238.322,81.333 238.444 C 81.333 238.567,81.083 238.667,80.778 238.667 C 80.472 238.667,80.222 238.754,80.222 238.860 C 80.222 238.967,79.625 239.121,78.896 239.204 C 78.166 239.286,77.510 239.449,77.438 239.566 C 77.366 239.682,77.063 239.778,76.765 239.778 C 76.466 239.778,76.222 239.878,76.222 240.000 C 76.222 240.122,75.872 240.222,75.444 240.222 C 75.017 240.222,74.667 240.322,74.667 240.444 C 74.667 240.567,74.367 240.667,74.000 240.667 C 73.633 240.667,73.333 240.767,73.333 240.889 C 73.333 241.011,73.058 241.110,72.722 241.108 C 72.377 241.106,72.222 241.033,72.367 240.941 C 72.508 240.851,72.694 240.303,72.781 239.722 C 72.868 239.142,73.028 238.667,73.136 238.667 C 73.245 238.667,73.333 238.367,73.333 238.000 C 73.333 237.633,73.433 237.333,73.556 237.333 C 73.678 237.333,73.778 237.083,73.778 236.778 C 73.778 236.472,73.878 236.222,74.000 236.222 C 74.122 236.222,74.222 235.922,74.222 235.556 C 74.222 235.189,74.313 234.889,74.424 234.889 C 74.534 234.889,74.694 234.389,74.778 233.778 C 74.862 233.167,75.021 232.667,75.132 232.667 C 75.243 232.667,75.333 232.367,75.333 232.000 C 75.333 231.633,75.433 231.333,75.556 231.333 C 75.678 231.333,75.778 231.083,75.778 230.778 C 75.778 230.472,75.878 230.222,76.000 230.222 C 76.122 230.222,76.222 230.022,76.222 229.778 C 76.222 229.533,76.315 229.333,76.428 229.333 C 76.542 229.333,76.703 228.783,76.787 228.111 C 76.871 227.439,77.029 226.889,77.137 226.889 C 77.245 226.889,77.333 226.639,77.333 226.333 C 77.333 226.028,77.433 225.778,77.556 225.778 C 77.678 225.778,77.778 225.528,77.778 225.222 C 77.778 224.917,77.878 224.667,78.000 224.667 C 78.122 224.667,78.222 224.367,78.222 224.000 C 78.222 223.633,78.315 223.333,78.428 223.333 C 78.542 223.333,78.703 222.783,78.787 222.111 C 78.871 221.439,79.029 220.889,79.137 220.889 C 79.245 220.889,79.333 220.639,79.333 220.333 C 79.333 220.028,79.433 219.778,79.556 219.778 C 79.678 219.778,79.778 219.528,79.778 219.222 C 79.778 218.917,79.878 218.667,80.000 218.667 C 80.122 218.667,80.222 218.467,80.222 218.222 C 80.222 217.978,80.315 217.778,80.428 217.778 C 80.542 217.778,80.703 217.228,80.787 216.556 C 80.871 215.883,81.029 215.333,81.137 215.333 C 81.245 215.333,81.333 215.129,81.333 214.880 C 81.333 213.739,79.981 213.795,107.475 213.786 L 133.061 213.778 133.211 214.778 "
        stroke="none" fill-rule="evenodd"></path>
</svg>