<svg width="100%" height="100%" viewBox="0 0 800 800" xmlns="http://www.w3.org/2000/svg">
    <path fill-rule="evenodd" clip-rule="evenodd"
        d="M326.236 0H476.466V73.4457H516.527C536.558 73.4457 549.911 86.7995 549.911 106.83V260.399L529.881 287.106L736.864 647.658L766.91 777.857C770.249 794.549 750.218 807.903 736.864 794.549L640.049 704.412L573.281 587.566C519.866 617.612 463.112 634.304 399.682 634.304C336.251 634.304 279.498 617.612 229.421 587.566L162.652 704.412L65.8372 794.549C52.4834 807.903 29.1143 794.549 35.7912 777.857L65.8372 647.658L142.621 510.782C92.5447 454.028 65.8372 377.244 65.8372 297.121C65.8372 283.768 65.8372 270.414 69.1756 260.399H169.329C165.99 273.752 165.99 283.768 165.99 297.121C165.99 340.521 179.344 380.583 199.375 417.305L276.159 287.106L256.128 260.399V106.83C256.128 86.7995 269.482 73.4457 289.513 73.4457H329.574V0H326.236ZM346.266 380.583L279.498 500.767C316.22 520.797 356.282 534.151 399.682 534.151C443.081 534.151 486.481 520.797 519.865 500.767L449.758 380.583L423.051 413.967C409.697 430.659 382.989 430.659 369.636 413.967L346.266 380.583ZM336.251 260.399C349.605 283.768 372.974 297.121 399.682 297.121C426.389 297.121 453.097 283.768 463.112 260.399C469.789 250.383 473.127 237.029 473.127 223.676C473.127 183.614 439.743 150.23 399.682 150.23C359.62 150.23 326.236 183.614 326.236 223.676C326.236 237.029 329.574 250.383 336.251 260.399Z" />
</svg>