<svg width="100%" height="100%" viewBox="0 0 640 640" xmlns="http://www.w3.org/2000/svg">
    <path
        d="M320 0C143.28 0 0 143.28 0 320C0 496.72 143.28 640 320 640C496.72 640 640 496.72 640 320C640 143.28 496.72 0 320 0ZM185.653 204.8C205.76 204.8 221.307 219.44 223.12 236.8C224.96 252.347 218.56 266.053 201.2 274.293C192.053 278.853 188.4 278.88 186.56 276.133C185.653 274.293 186.56 272.48 188.4 270.64C204.853 256.933 204.853 245.947 203.013 230.427C202.107 220.347 194.8 213.947 187.467 213.947C155.467 213.947 109.76 285.253 116.16 337.387C118.907 357.493 130.8 381.28 156.4 381.28C164.613 381.28 173.733 378.533 182 374.88C195.333 367.84 203.307 362.347 211.253 353.547C209.307 329.947 230.027 298.987 260.613 298.987C274.347 298.987 285.307 304.453 286.213 314.533C288.027 328.24 276.16 330.053 272.507 330.053C268.853 330.053 262.427 329.147 262.427 325.52C261.52 321.84 270.667 323.653 269.76 315.44C268.827 309.947 263.36 308.133 257.867 308.133C238.667 308.133 227.707 334.64 230.427 351.093C231.36 358.427 235.013 365.733 242.347 365.733C247.813 365.733 256.053 357.467 258.8 345.6C260.613 337.387 267.947 331.893 274.347 331.893C277.067 331.893 278.88 332.8 279.813 336.453V340.133C278.907 343.787 276.16 354.747 277.093 357.493C277.093 359.333 278 362.053 281.627 362.053C284.08 362.053 293.253 357.253 302.347 349.813C305.467 334.08 309.093 315.2 309.093 313.627C310 307.227 312.747 300.827 325.547 300.827C328.293 300.827 330.107 301.733 331.013 305.387V309.067L327.387 325.52C339.253 309.973 356.64 299.013 367.6 299.013C372.187 299.013 375.84 301.733 375.84 306.32C375.84 309.067 375.84 313.627 374 318.213C370.347 328.267 365.76 343.813 363.013 357.52C363.013 361.173 363.947 364.827 368.533 364.827C373.093 364.827 386.8 359.333 397.76 344.72L397.947 344.613C397.893 342.8 397.76 341.04 397.76 339.227C397.76 328.267 398.693 319.12 400.533 312.72C402.347 305.413 411.493 299.013 416.987 299.013C419.733 299.013 422.453 300.853 422.453 303.573C422.453 304.507 422.453 306.32 421.547 307.227C417.893 319.12 415.147 330.08 415.147 341.067C415.147 347.467 416.053 356.587 417.867 362.08C417.867 362.987 418.8 363.92 419.733 363.92C421.547 363.92 434.347 352.053 443.467 336.507C435.253 331.013 430.667 321.867 430.667 310.907C430.667 291.707 442.56 281.653 453.547 281.653C462.693 281.653 470 288.053 470 300.853C470 309.067 467.253 318.187 462.693 326.453H465.413C468.314 326.548 471.202 326.026 473.886 324.923C476.571 323.82 478.991 322.16 480.987 320.053C481.826 318.668 483.074 317.578 484.56 316.933C493.493 305.6 506.693 297.2 522.16 297.2C534.96 297.2 546.8 302.667 547.733 312.72C549.547 326.453 537.653 329.2 534 329.2L533.947 329.147C530.267 329.147 523.893 328.213 523.893 324.56C523.893 320.907 532.133 322.747 531.2 314.533C530.293 309.04 524.8 307.2 519.307 307.2C501.013 307.2 489.173 330.96 491.893 350.16C492.8 357.493 496.453 365.707 503.76 365.707C509.253 365.707 517.493 357.493 521.147 345.6C522.96 338.293 530.293 331.893 536.693 331.893C539.44 331.893 541.227 332.8 542.16 336.453C542.16 338.293 542.16 341.947 538.507 353.84C533.973 362.053 533.947 366.64 534.853 370.293C535.76 377.6 539.413 383.093 543.093 385.84C544 386.747 544.907 388.56 544.907 388.56C544.907 390.4 544 392.24 541.253 392.24C540.347 392.24 539.44 392.24 538.507 391.307C524.8 385.84 519.307 376.693 517.467 367.547C512 373.947 505.6 377.6 498.267 377.6C486.4 377.6 474.533 366.64 472.667 352.907C472.143 347.062 472.823 341.171 474.667 335.6C469.253 339.067 463.413 341.013 458.053 341.013H453.52C441.6 358.4 428.8 370.293 419.653 375.76C416.547 377.413 413.114 378.36 409.6 378.533C407.787 378.533 405.04 377.6 404.133 375.76C401.6 371.707 399.973 365.307 398.987 357.973C386.16 372.027 368.453 379.44 360.24 379.44C351.093 379.44 345.627 373.947 344.72 364.773V354.747C347.44 334.64 354.773 322.747 354.773 319.093C354.748 318.611 354.547 318.154 354.208 317.81C353.869 317.466 353.415 317.259 352.933 317.227C346.533 317.227 325.52 339.2 321.84 353.84L319.093 365.707C317.28 373.947 309.04 379.44 303.573 379.44C300.827 379.44 298.987 378.507 298.08 374.853V371.2L299.307 364.987C287.707 373.253 276.107 378.533 270.64 378.533C262.427 378.533 257.84 373.947 256.933 367.547C251.44 374.853 245.067 378.533 236.827 378.533C227.44 378.533 218.267 372.133 213.84 362.72C207.333 370.053 199.893 377.467 191.12 383.093C178.32 391.333 163.707 397.733 146.32 397.733C130.8 397.733 117.067 389.493 109.76 382.187C98.7733 372.133 92.4 356.587 91.4667 341.947C86 297.147 113.413 239.547 155.467 213.947C165.547 208.48 175.6 204.8 185.653 204.8ZM446.187 292.56C443.413 292.56 441.6 297.147 441.6 301.707C441.6 309.013 445.253 317.253 449.84 321.84C451.628 316.851 452.548 311.593 452.56 306.293C452.56 297.147 448.933 292.56 446.187 292.56Z" />

</svg>