<svg width="100%" height="100%" viewBox="0 0 1586 2234"
    xmlns="http://www.w3.org/2000/svg">
    <path d="M337 0V301.952L585.668 301.956V211.822H437.916V90.1294L585.668 90.1341V0H337Z"
    />
    <path
        d="M970 90.1294V0H1248.67V90.1341L1109.33 90.1294L1248.67 211.822V301.956L970 301.952V211.822H1109.33L970 90.1294Z"
    />
    <path
        d="M631 90.1294V0H909.668V90.1341L770.334 90.1294L909.668 211.822V301.956L631 301.952V211.822H770.334L631 90.1294Z"
    />
    <path fill-rule="evenodd" clip-rule="evenodd"
        d="M144.375 2053.62L0 434.358H1585.57L1441.02 2053.7L792.392 2233.51L144.375 2053.62ZM792.781 963.975V1167.34H553.155L570.87 1365.94H792.786V1683.28L792.506 1683.37L571.323 1623.63L556.559 1458.2H357.195L385.644 1777.08L792.463 1890.01L792.781 1889.92V2096.01L1317.28 1950.6L1440.82 566.769H792.781V765.37H295.384L313.1 963.975H792.781Z"
    />
    <path opacity="0.8" fill-rule="evenodd" clip-rule="evenodd"
        d="M792.783 1365.94H1037.24L1014.19 1623.52L792.783 1683.28V1365.94ZM792.783 765.369V566.769V566.764H1440.81L1317.28 1950.6L792.783 2096.01V1889.92L1199.83 1777.08L1290.18 765.369H792.783ZM1073.15 963.974H792.783V1167.34H1054.97L1073.15 963.974Z"
    />
    <g opacity="0.2">
        <path d="M792.781 765.369L295.384 765.369L313.1 963.974L792.781 963.974V765.369Z"
        />
        <path d="M792.781 1365.94V1167.34L553.155 1167.34L570.87 1365.94L792.781 1365.94Z"
        />
        <path
            d="M792.781 1683.28L792.502 1683.37L571.323 1623.63L556.559 1458.2H357.191L385.64 1777.07L792.464 1890.01L792.781 1889.92V1683.28Z"
        />
    </g>
</svg>