<svg width="100%" height="100%" viewBox="0 0 800 800" xmlns="http://www.w3.org/2000/svg">
    <path
        d="M533.334 266.667C568.696 266.667 602.61 252.619 627.615 227.614C652.62 202.609 666.667 168.696 666.667 133.333C666.667 97.9712 652.62 64.0573 627.615 39.0525C602.61 14.0476 568.696 3.05176e-05 533.334 3.05176e-05H266.667C231.305 3.05176e-05 197.391 14.0476 172.386 39.0525C147.382 64.0573 133.334 97.9712 133.334 133.333C133.334 168.696 147.382 202.609 172.386 227.614C197.391 252.619 231.305 266.667 266.667 266.667C231.305 266.667 197.391 280.714 172.386 305.719C147.382 330.724 133.334 364.638 133.334 400C133.334 435.362 147.382 469.276 172.386 494.281C197.391 519.286 231.305 533.333 266.667 533.333C240.297 533.333 214.518 541.153 192.591 555.804C170.665 570.455 153.575 591.279 143.483 615.642C133.392 640.006 130.751 666.815 135.896 692.679C141.041 718.543 153.739 742.301 172.386 760.948C191.033 779.595 214.791 792.293 240.655 797.438C266.519 802.583 293.328 799.942 317.692 789.851C342.055 779.759 362.879 762.669 377.53 740.743C392.181 718.816 400.001 693.037 400.001 666.667V266.667H533.334Z" />
    <path
        d="M533.333 533.333C606.971 533.333 666.667 473.638 666.667 400C666.667 326.362 606.971 266.667 533.333 266.667C459.695 266.667 400 326.362 400 400C400 473.638 459.695 533.333 533.333 533.333Z" />

</svg>