<svg width="60" height="60" viewBox="0 0 60 60" xmlns="http://www.w3.org/2000/svg">
    <path
        d="M30 0.484497C26.0603 0.484497 22.1593 1.26047 18.5195 2.76811C14.8797 4.27575 11.5726 6.48554 8.7868 9.27129C3.16071 14.8974 0 22.528 0 30.4845C0 43.7445 8.61 54.9945 20.52 58.9845C22.02 59.2245 22.5 58.2945 22.5 57.4845V52.4145C14.19 54.2145 12.42 48.3945 12.42 48.3945C11.04 44.9145 9.09 43.9845 9.09 43.9845C6.36 42.1245 9.3 42.1845 9.3 42.1845C12.3 42.3945 13.89 45.2745 13.89 45.2745C16.5 49.8345 20.91 48.4845 22.62 47.7645C22.89 45.8145 23.67 44.4945 24.51 43.7445C17.85 42.9945 10.86 40.4145 10.86 28.9845C10.86 25.6545 12 22.9845 13.95 20.8545C13.65 20.1045 12.6 16.9845 14.25 12.9345C14.25 12.9345 16.77 12.1245 22.5 15.9945C24.87 15.3345 27.45 15.0045 30 15.0045C32.55 15.0045 35.13 15.3345 37.5 15.9945C43.23 12.1245 45.75 12.9345 45.75 12.9345C47.4 16.9845 46.35 20.1045 46.05 20.8545C48 22.9845 49.14 25.6545 49.14 28.9845C49.14 40.4445 42.12 42.9645 35.43 43.7145C36.51 44.6445 37.5 46.4745 37.5 49.2645V57.4845C37.5 58.2945 37.98 59.2545 39.51 58.9845C51.42 54.9645 60 43.7445 60 30.4845C60 26.5448 59.224 22.6438 57.7164 19.004C56.2087 15.3642 53.999 12.0571 51.2132 9.27129C48.4274 6.48554 45.1203 4.27575 41.4805 2.76811C37.8407 1.26047 33.9397 0.484497 30 0.484497Z"
    />
</svg>