<svg width="100%" height="100%" viewBox="0 0 1586 2234"
    xmlns="http://www.w3.org/2000/svg">
    <path
        d="M145.472 0H246.388V99.7171H338.713V0H439.653V301.956H338.713V200.846H246.388V301.952H145.472V0Z"
    />
    <path d="M572.367 100.129H483.505V0H762.173V100.134H673.287V301.956H572.362L572.367 100.129Z"
    />
    <path
        d="M806.425 0H911.662L976.392 106.1L1041.06 0H1146.34V301.956H1045.83V152.293L976.392 259.653H974.658L905.171 152.293V301.952H806.425V0Z"
    />
    <path d="M1196.57 0H1297.54V202.154H1439.47V301.952H1196.57V0Z" />
    <path
        d="M530.574 1167.34H792.781V963.975H512.421L530.574 1167.34ZM0 434.358L144.375 2053.62L792.392 2233.51L1441.02 2053.7L1585.57 434.358H0ZM1317.28 1950.6L792.781 2096.01V1889.92L792.463 1890.01L385.644 1777.08L357.195 1458.2H556.559L571.323 1623.63L792.506 1683.37L792.786 1683.28V1365.94H348.955L295.384 765.37H792.781V566.769H1440.82L1317.28 1950.6Z"
    />
    <path opacity="0.8"
        d="M1037.24 1365.94H792.783V1683.28L1014.19 1623.52L1037.24 1365.94ZM792.783 566.769V765.369H1290.18L1272.4 963.974H792.783V1167.34H1254.32L1199.83 1777.08L792.783 1889.92V2096.01L1317.28 1950.6L1440.81 566.764H792.783V566.769Z"
    />
    <g opacity="0.2">
        <path
            d="M792.78 765.369H295.379L348.95 1365.94H792.78V1167.34H530.573L512.421 963.974H792.78V765.369Z"
        />
        <path
            d="M792.781 1683.28L792.501 1683.37L571.323 1623.63L556.558 1458.2H357.19L385.639 1777.07L792.463 1890.01L792.781 1889.92V1683.28Z"
        />
    </g>
</svg>