<svg width="100%" height="100%" viewBox="0 0 1586 2234"
    xmlns="http://www.w3.org/2000/svg">
    <path
        d="M806.782 90.1294V0H1085.45V90.1341L946.116 90.1294L1085.45 211.822V301.956L806.782 301.952V211.822H946.116L806.782 90.1294Z"
    />
    <path d="M744.68 0H643.717V202.154H501.782V301.952H744.68V0Z" />
    <path
        d="M576.934 1167.34H792.781V853.756H604.024L576.934 1167.34ZM0 434.358L144.375 2053.62L792.392 2233.51L1441.02 2053.7L1585.57 434.358H0ZM1317.28 1950.6L792.781 2096.01V1889.92L792.463 1890.01L385.644 1777.08L357.195 1458.2H556.559L571.323 1623.63L792.506 1683.37L792.786 1683.28V1365.94H357.195L419.282 647.256H792.781V566.769H1440.82L1317.28 1950.6Z"
    />
    <path opacity="0.8"
        d="M1037.24 1365.94H792.783V1683.28L1014.19 1623.52L1037.24 1365.94ZM792.783 647.256H1210.31L1246.55 1066.76H1050.18L1031.78 853.756L792.783 853.756V1167.34H1254.32L1199.83 1777.08L792.783 1889.92V2096.01L1317.28 1950.6L1440.81 566.764H792.783L792.783 647.256Z"
    />
    <g opacity="0.2">
        <path
            d="M792.781 647.255H419.282L357.19 1365.94H792.781V1167.34L576.934 1167.34L604.024 853.755L792.781 853.755V647.255Z"
        />
        <path
            d="M792.781 1683.28L792.502 1683.37L571.323 1623.63L556.559 1458.2H357.191L385.64 1777.07L792.464 1890.01L792.781 1889.92V1683.28Z"
        />
    </g>
</svg>