<svg width="800" height="800" viewBox="0 0 800 800" xmlns="http://www.w3.org/2000/svg">
    <path
        d="M658.333 10.0005H141.667C63.3333 10.0005 0 73.3338 0 151.667V648.334C0 726.667 63.3333 790.001 141.667 790.001H658.333C736.667 790.001 800 726.667 800 648.334V151.667C800 73.3338 736.667 10.0005 658.333 10.0005ZM285.667 556.3C285.333 558.334 284.667 559.667 283.667 560.334C282.667 561 281.667 561.301 280.667 561.301H90.3333C87 561.301 85.6667 559.267 85.6667 555.301V214.667C85.6667 211.334 87 210 90 210H149C151.333 210 152.333 211.334 152.333 213.667V493.667H291C294 493.667 295 495.3 294.333 498.334L285.667 556.3ZM472.333 359C472.333 361.667 470.667 362.667 467.633 362.667C457 362 446.333 362.667 436 365C427.333 367 419 370 411 374C405 377 399.333 381.334 394.667 386.334V556.334C394.667 559.701 393.333 561.034 390.667 561.034H332.667C329.333 561.034 328 559.334 328 555.7V371.034C328 363.034 328 354.7 327.667 346.034C327.667 337.367 327.333 328.7 327 320.034C326.667 312.667 326 305.334 325 298C325 297 325 296 325.667 295C326.667 294.667 327.333 294.334 328.333 294.667H381C384 294.667 386 296.334 387.333 300C388.333 302.334 389.333 305 389.667 307.667C390.333 311 390.667 314.667 391 318C391.333 321.667 391.333 325.667 391.333 330C400 318.667 411 308.667 423.333 301.334C436.633 293.334 452.333 289 468 289.334C471 289.334 472.333 291 472.333 294V359ZM712.333 305.334C712.667 307.334 711.633 309 710.333 310.334C708.967 311 707.333 311 705.967 310.334C698.333 306.334 690.3 303.667 681.967 302.334C671.633 300.334 660.967 299.667 650.633 299.667C633.633 299.334 616.633 303.667 602 312.334C588.333 320.667 577.667 333 570.667 347.334C563.033 364 559.3 382.334 559.667 400.667C559.3 414 561.333 427.034 565 439.634C568.333 450 573.333 459.667 579.667 468.3C585.333 475.934 592.3 482.667 600.633 487.634C608.633 492.3 616.967 495.967 625.967 498.3C634.3 500.6 643.333 501.967 652 501.967C661.633 501.967 671.333 501.6 680.967 500.6C688.967 499.634 696.967 497.6 704.3 494.934C706.967 492.934 708.633 493.967 709.633 494.6C710.967 495.934 711.633 497.934 711.3 499.6V549.267C711.633 553.234 709.633 556.6 706.3 558.267C697.633 561.6 688.667 563.934 679.3 564.934C668 566.667 656.667 567.334 645 567.334C628.667 567.334 612 565.034 596.367 560.7C581 556.7 566.667 549.7 554 540.7C541.333 531.667 530.333 520.667 521.367 507.7C511.667 493.7 504.7 478.334 500 462C495 442.667 492.333 423 492.633 403.367C492.633 370.7 499 341.367 511.967 316.7C524.667 292.367 543.667 272.034 567.3 258.367C591 244.7 619.633 237.7 652.333 237.7C663.667 237.7 675 238.367 686.333 239.7C694 240.7 701.667 242.367 708.667 245.367C711.333 247.034 712.667 250.034 712.333 253.367V305.334Z" />
</svg>