<svg width="100%" height="100%" viewBox="0 0 54 55" xmlns="http://www.w3.org/2000/svg">
    <path
        d="M48 0.484497C49.5913 0.484497 51.1174 1.11664 52.2426 2.24186C53.3679 3.36707 54 4.8932 54 6.4845V48.4845C54 50.0758 53.3679 51.6019 52.2426 52.7271C51.1174 53.8524 49.5913 54.4845 48 54.4845H6C4.4087 54.4845 2.88258 53.8524 1.75736 52.7271C0.632141 51.6019 0 50.0758 0 48.4845V6.4845C0 4.8932 0.632141 3.36707 1.75736 2.24186C2.88258 1.11664 4.4087 0.484497 6 0.484497H48ZM46.5 46.9845V31.0845C46.5 28.4907 45.4696 26.0031 43.6355 24.169C41.8014 22.3349 39.3138 21.3045 36.72 21.3045C34.17 21.3045 31.2 22.8645 29.76 25.2045V21.8745H21.39V46.9845H29.76V32.1945C29.76 29.8845 31.62 27.9945 33.93 27.9945C35.0439 27.9945 36.1122 28.437 36.8998 29.2246C37.6875 30.0123 38.13 31.0806 38.13 32.1945V46.9845H46.5ZM11.64 17.1645C12.9767 17.1645 14.2586 16.6335 15.2038 15.6883C16.149 14.7431 16.68 13.4612 16.68 12.1245C16.68 9.3345 14.43 7.0545 11.64 7.0545C10.2954 7.0545 9.00578 7.58866 8.05497 8.53947C7.10416 9.49027 6.57 10.7798 6.57 12.1245C6.57 14.9145 8.85 17.1645 11.64 17.1645ZM15.81 46.9845V21.8745H7.5V46.9845H15.81Z"
    />
</svg>