<svg width="60" height="49" viewBox="0 0 60 49" xmlns="http://www.w3.org/2000/svg">
    <path
        d="M6 48.4845C4.35 48.4845 2.938 47.8975 1.764 46.7235C0.59 45.5495 0.002 44.1365 0 42.4845V6.4845C0 4.8345 0.588 3.4225 1.764 2.2485C2.94 1.0745 4.352 0.486497 6 0.484497H54C55.65 0.484497 57.063 1.0725 58.239 2.2485C59.415 3.4245 60.002 4.8365 60 6.4845V42.4845C60 44.1345 59.413 45.5475 58.239 46.7235C57.065 47.8995 55.652 48.4865 54 48.4845H6ZM30 26.9595C30.25 26.9595 30.513 26.9215 30.789 26.8455C31.065 26.7695 31.327 26.6575 31.575 26.5095L52.8 13.2345C53.2 12.9845 53.5 12.6725 53.7 12.2985C53.9 11.9245 54 11.5115 54 11.0595C54 10.0595 53.575 9.3095 52.725 8.8095C51.875 8.3095 51 8.3345 50.1 8.8845L30 21.4845L9.9 8.8845C9 8.3345 8.125 8.3225 7.275 8.8485C6.425 9.3745 6 10.1115 6 11.0595C6 11.5595 6.1 11.9975 6.3 12.3735C6.5 12.7495 6.8 13.0365 7.2 13.2345L28.425 26.5095C28.675 26.6595 28.938 26.7725 29.214 26.8485C29.49 26.9245 29.752 26.9615 30 26.9595Z"
    />
</svg>