<svg width="400" height="400" viewBox="0 0 400 400" xmlns="http://www.w3.org/2000/svg">
    <path fill-rule="evenodd" clip-rule="evenodd"
        d="M188.477 0.210061C143.652 2.99106 108.403 19.8351 101.197 41.9181C99.981 45.6431 100 45.2261 100 68.6871V90.0391H150H200V95.0181V99.9971L122.9 100.047L45.801 100.098L43.555 100.712C12.816 109.123 -6.719 169.165 1.973 228.516C7.493 266.204 23.747 293.867 43.555 299.286L45.801 299.9L67.888 299.956L89.976 300.011L90.103 291.461C91.076 225.911 104.438 202.653 144.384 196.987C155.432 195.42 162.417 195.16 200.195 194.917C228.691 194.733 232.702 194.647 240.918 194.041C285.113 190.781 296.848 175.836 299.651 119.238C299.836 115.508 299.902 105.115 299.902 80.0781V45.9961L299.366 43.8831C293.616 21.2391 260.384 4.25006 214.258 0.374061C211.059 0.105061 192.111 -0.0149395 188.477 0.210061ZM149.414 32.0531C166.326 36.2121 168.503 59.4381 152.671 66.7971C137.313 73.9351 121.091 57.6801 128.206 42.2821C131.911 34.2611 140.854 29.9481 149.414 32.0531ZM309.96 104.932C309.948 167.842 297.172 193.464 261.927 201.26C248.337 204.266 238.709 204.796 192.285 205.088C165.527 205.257 162.007 205.338 154.199 205.966C115.582 209.072 103.737 224.288 100.688 274.707C99.918 287.424 99.624 350.474 100.315 354.507C103.916 375.516 134.187 393.311 175.195 398.525C233.513 405.94 291.087 386.417 299.286 356.445L299.9 354.199L299.956 332.08L300.011 309.961H250.006H200V304.98V300H276.333C345.716 300 352.833 299.971 354.507 299.685C376.246 295.959 394.536 263.535 399.004 220.801C399.804 213.157 399.902 210.871 399.902 200C399.902 153.217 384.54 113.801 362.028 102.825C356.094 99.9311 356.846 100 331.313 100H309.961L309.96 104.932ZM259.376 332.043C273.02 335.3 278.073 352.28 268.48 362.637C259.353 372.491 242.866 369.372 237.842 356.84C232.283 342.978 244.801 328.563 259.376 332.043Z"
    />
</svg>