<svg width="100%" height="100%" viewBox="0 0 800 800" xmlns="http://www.w3.org/2000/svg">
    <path
        d="M200 332.5C226.667 225.833 293.333 172.5 400 172.5C560 172.5 580 292.5 660 312.5C713.333 325.833 760 305.833 800 252.5C773.333 359.167 706.667 412.5 600 412.5C440 412.5 420 292.5 340 272.5C286.667 259.167 240 279.167 200 332.5ZM0 572.5C26.6667 465.833 93.3333 412.5 200 412.5C360 412.5 380 532.5 460 552.5C513.333 565.833 560 545.833 600 492.5C573.333 599.167 506.667 652.5 400 652.5C240 652.5 220 532.5 140 512.5C86.6667 499.167 40 519.167 0 572.5Z" />
</svg>