<svg width="960" height="960" viewBox="0 0 960 960" xmlns="http://www.w3.org/2000/svg">
    <path
        d="M100.859 6.10352e-05H122.538V21.4214H142.372V6.10352e-05H164.056V64.8665H142.372V43.146H122.538V64.8657H100.859V6.10352e-05Z"
    />
    <path
        d="M192.595 21.5099H173.506V6.10352e-05H233.37V21.5109H214.275V64.8665H192.594L192.595 21.5099Z"
    />
    <path
        d="M242.891 6.10352e-05H265.498L279.403 22.7926L293.295 6.10352e-05H315.911V64.8665H294.32V32.7158L279.403 55.779H279.031L264.103 32.7158V64.8657H242.891V6.10352e-05Z"
    />
    <path d="M326.709 6.10352e-05H348.399V43.427H378.889V64.8657H326.709V6.10352e-05Z" />
    <path
        d="M183.609 250.816H239.947V207.121H179.709L183.609 250.816ZM69.6094 93.3267L100.63 441.244L239.864 479.895L379.229 441.261L410.287 93.3267H69.6094ZM352.642 419.109L239.947 450.352V406.071L239.879 406.09L152.469 381.826L146.357 313.311H189.192L192.365 348.855L239.888 361.691L239.949 361.672V293.488H144.586L133.076 164.448H239.947V121.777H379.186L352.642 419.109Z"
    />
    <path
        d="M622.021 7.62939e-05V64.8657L675.44 64.8665V45.5039H643.7V19.3618L675.44 19.3628V7.62939e-05H622.021Z"
    />
    <path
        d="M758.037 19.3618V7.62939e-05H817.901V19.3628L787.968 19.3618L817.901 45.5039V64.8665L758.037 64.8657V45.5039H787.968L758.037 19.3618Z"
    />
    <path
        d="M685.195 19.3618V7.62939e-05H745.059V19.3628L715.127 19.3618L745.059 45.5039V64.8665L685.195 64.8657V45.5039H715.127L685.195 19.3618Z"
    />
    <path fill-rule="evenodd" clip-rule="evenodd"
        d="M580.639 441.244L549.619 93.3267H890.297L859.238 441.261L719.873 479.895L580.639 441.244ZM719.957 207.121V250.816H668.47L672.277 293.488H719.958V361.672L719.898 361.691L672.374 348.855L669.202 313.311H626.366L632.479 381.826L719.888 406.09L719.957 406.071V450.352L832.651 419.109L859.195 121.777H719.957V164.448H613.085L616.892 207.121H719.957Z"
    />
    <path
        d="M482.949 499.362V480H542.812V499.363L512.881 499.362L542.812 525.504V544.867L482.949 544.866V525.504H512.881L482.949 499.362Z"
    />
    <path d="M469.611 480H447.922V523.427H417.431V544.866H469.611V480Z" />
    <path
        d="M433.57 730.816H479.947V663.439H439.39L433.57 730.816ZM309.609 573.327L340.63 921.244L479.863 959.895L619.229 921.261L650.287 573.327H309.609ZM592.642 899.109L479.947 930.352V886.071L479.879 886.09L392.469 861.826L386.356 793.311H429.192L432.364 828.855L479.888 841.691L479.948 841.672V773.488H386.356L399.696 619.07H479.947V601.777H619.186L592.642 899.109Z"
    />
    <g opacity="0.8">
        <path
            d="M292.476 293.488H239.951V361.672L287.523 348.832L292.476 293.488ZM239.951 164.448H346.823L343.002 207.121H239.951V250.816H339.118L327.41 381.826L239.951 406.071V450.352L352.645 419.108L379.187 121.776H239.951V164.448Z"
        />
        <path fill-rule="evenodd" clip-rule="evenodd"
            d="M719.951 293.488H772.475L767.523 348.832L719.951 361.672V293.488ZM719.951 164.448V121.776H859.187L832.645 419.108L719.951 450.352V406.071L807.41 381.826L826.822 164.448H719.951ZM780.191 207.121H719.951V250.816H776.285L780.191 207.121Z"
        />
        <path
            d="M532.475 773.488H479.951V841.672L527.523 828.832L532.475 773.488ZM479.951 619.07H569.661L577.448 709.205H535.256L531.302 663.439H479.951V730.816H579.117L567.41 861.826L479.951 886.071V930.352L592.645 899.108L619.187 601.776H479.951V619.07Z"
        />
    </g>
    <g opacity="0.2">
        <path
            d="M239.958 164.449H133.086L144.596 293.488H239.958V250.817H183.62L179.72 207.121H239.958V164.449Z"
        />
        <path
            d="M239.931 361.663L239.871 361.683L192.357 348.849L189.186 313.312H146.357L152.469 381.812L239.863 406.073L239.931 406.054V361.663Z"
        />
        <path d="M719.947 164.449H613.095L616.901 207.113H719.947V164.449Z" />
        <path d="M719.953 293.48V250.816H668.476L672.281 293.48H719.953Z" />
        <path
            d="M719.94 361.664L719.88 361.683L672.367 348.849L669.195 313.312H626.367L632.478 381.812L719.872 406.073L719.94 406.054V361.664Z"
        />
        <path
            d="M479.959 619.07H399.708L386.367 773.488H479.959V730.817H433.581L439.402 663.439H479.959V619.07Z"
        />
        <path
            d="M479.941 841.663L479.881 841.683L432.367 828.849L429.195 793.311H386.367L392.478 861.811L479.872 886.073L479.941 886.054V841.663Z"
        />
    </g>
</svg>